<?xml version="1.0" encoding="UTF-8"?>
<!-- Generated by Pixelmator Pro 3.2.3 -->
<svg width="500" height="500" viewBox="0 0 500 500" xmlns="http://www.w3.org/2000/svg"
    xmlns:xlink="http://www.w3.org/1999/xlink">
    <g id="bsci-glyph-light">
        <path id="Rounded-Rectangle-copy" fill="#e0e0e0" fill-rule="evenodd" stroke="none"
            d="M 0 376 C -0 443.93103 55.068977 499 123 499 L 377 499 C 444.93103 499 500 443.93103 500 376 L 500 122 C 500 54.06897 444.93103 -1 377 -1 L 123 -1 C 55.068977 -1 0 54.06897 0 122 Z" />
        <path id="Path" fill="#0c0c0c" fill-rule="evenodd" stroke="none"
            d="M 195.211655 64.902527 C 191.562668 65.47403 190.401642 65.718933 187.540512 66.535309 C 184.223221 67.474121 184.057373 67.514954 179.869324 69.392578 C 176.842331 70.739563 170.746857 74.494781 168.673569 76.249939 C 166.558792 78.045959 164.236725 80.331787 161.831696 82.984955 C 160.463333 84.495209 158.597366 86.536102 157.685135 87.474915 C 156.772873 88.454559 155.072784 90.332184 153.911743 91.638336 C 152.750687 92.985321 151.092072 94.781311 150.304199 95.638519 C 149.474899 96.495697 147.650406 98.536591 146.199112 100.128479 C 144.747803 101.679565 143.296478 103.271484 142.964783 103.638824 C 142.633026 104.006195 141.223221 105.557281 139.854828 107.108368 C 138.486465 108.659454 137.446182 109.541107 137 110 C 131.646667 115.505676 139.255051 121.947876 143 126 C 147.453232 130.818512 153.982895 138.414276 161.126785 134.701324 C 161.679871 134.413879 210.512543 99.475403 211.507721 99.06723 C 212.1297 98.781494 212.627289 98.414124 212.627289 98.250854 C 212.627289 98.046783 212.751709 97.965118 212.959045 98.005951 C 213.124893 98.046783 213.829819 97.80188 214.493256 97.434479 C 216.193375 96.577332 220.71315 95.026245 222.330276 94.781311 C 223.035217 94.658875 224.445053 94.454773 225.398773 94.250702 C 227.969635 93.801697 234.313904 94.087433 237.50679 94.822144 C 241.819229 95.801788 245.053558 97.067139 256.373718 102.006104 C 257.28595 102.414307 259.898315 103.516388 262.178925 104.45517 C 266.532837 106.25116 342.622559 138.497375 345.400787 139.721924 C 353.030487 143.028168 353.776855 143.354706 354.274445 143.43634 C 355.10379 143.640442 362.484711 147.354858 362.733459 147.681396 C 362.85788 147.885498 363.562775 148.334503 364.309174 148.701843 C 366.216583 149.681488 372.602295 156.00827 374.385345 158.743073 C 376.914734 162.579987 378.988068 167.437317 379.485626 170.743561 C 379.65152 171.600739 379.817383 172.417114 379.900269 172.580383 C 380.066193 172.825287 380.522308 176.2948 380.771057 179.070435 C 380.854004 179.805145 380.978455 181.152161 381.144287 182.131775 C 381.268677 183.070587 381.476044 184.948242 381.641846 186.295227 C 381.766266 187.642212 392.298584 275.768188 392.38147 276.911102 C 392.464417 278.013184 392.630341 279.686707 392.7547 280.584717 C 392.837616 281.482727 393.044983 283.237885 393.210846 284.462402 C 393.335205 285.686951 393.542603 287.360474 393.625488 288.136047 C 394.869446 297.034363 394.620636 302.463135 392.713226 308.340942 C 392.38147 309.443024 391.925415 310.545105 391.759552 310.789978 C 391.552155 310.99411 391.386383 311.320648 391.386383 311.524719 C 391.303406 312.25946 389.022766 316.259613 387.488586 318.34137 C 385.332367 321.23941 380.522308 325.892639 377.868469 327.729462 C 376.748901 328.504974 375.629303 329.280548 375.380554 329.443787 C 375.173187 329.647919 373.680481 330.75 372.063263 331.892944 C 370.487549 333.07663 288.509705 392.507568 287.680389 393.160645 C 283.326477 396.589386 276.152893 401.242615 273.167358 402.548767 C 270.596466 403.691711 266.449921 404.91626 265.869385 404.712158 C 265.579132 404.589691 265.288879 404.712158 265.205933 404.957062 C 265.081543 405.242798 263.174103 405.446838 259.649506 405.487671 C 255.37854 405.528503 253.595505 405.365265 250.775818 404.671326 C 246.546326 403.610016 242.068008 402.018127 241.321625 401.32428 C 241.031372 401.038513 240.492325 400.79361 240.202042 400.79361 C 239.870331 400.79361 238.626343 400.344604 237.423843 399.813995 C 231.411301 397.079193 128.244415 352.628418 128.078552 352.628418 C 127.912682 352.628418 126.502838 351.852905 124.927147 350.954895 C 119.163406 347.526184 114.72657 342.668854 111.948357 336.791077 C 111.326363 335.525726 110.828781 334.382813 110.787308 334.260315 C 110.787308 334.137878 110.662918 333.770508 110.497055 333.444 C 110.082397 332.382751 109.37748 329.933655 109.170143 328.913147 C 109.045753 328.382568 108.796959 326.99469 108.589622 325.892639 C 108.340836 324.749756 102.16243 271.84967 101.913628 269.604675 C 101.291649 264.461609 101.291649 264.380005 100.420868 262.747284 C 98.098778 258.298096 91.626419 259.055298 87 258 C 83.118515 257.114624 75.126732 256.706177 75.126732 256.706177 C 75.126732 256.706177 71.187485 255.563309 69.072723 256.461304 C 66.999443 257.359314 65.548134 258.828735 64.967621 260.788025 C 64.51149 262.257446 64.594414 262.86972 65.672523 266.420898 C 66.335983 268.584229 66.875038 270.461853 66.916504 270.58432 C 66.916504 270.706787 67.040901 271.074158 67.165306 271.400696 C 67.579956 272.461945 96.771881 365.975891 97.145065 367.118774 C 98.886635 372.302643 102.079491 378.058014 105.811417 382.629639 C 109.29454 386.915466 115.638809 392.303528 119.868324 394.630127 C 120.697632 395.119934 122.024544 395.813782 122.770927 396.222015 C 123.890503 396.834229 128.617615 398.875153 129.281036 398.997681 C 129.405472 398.997681 233.899246 423.488434 235.226135 423.814941 C 236.843338 424.223145 246.421906 426.468109 247.458557 426.672241 C 248.039093 426.794678 249.697708 427.162048 251.190475 427.529388 C 252.641785 427.896759 254.258957 428.26413 254.715088 428.345764 C 255.171219 428.427399 255.544403 428.509033 255.544403 428.549835 C 255.544403 428.590637 255.959045 428.672333 256.456665 428.794769 C 256.954224 428.876404 259.31778 429.407043 261.639893 429.937653 C 276.650482 433.488831 275.98703 433.325562 279.179871 433.774536 C 281.501984 434.101105 290.707367 434.060272 293.27829 433.733704 C 294.190521 433.611267 295.766235 433.325562 296.802856 433.080627 C 297.839508 432.794891 298.959076 432.550018 299.332275 432.468384 C 300.327454 432.22345 303.893524 431.039734 304.888702 430.631531 C 307.832764 429.407043 310.486572 428.059998 310.693909 427.733521 C 310.859741 427.488586 311.150024 427.406921 311.357361 427.529388 C 311.564697 427.692688 311.73053 427.57019 311.73053 427.284485 C 311.73053 426.998749 311.85495 426.917114 311.97934 427.039551 C 312.186676 427.243683 315.462463 425.284424 316.291779 424.468079 C 316.416199 424.345581 317.245483 423.733337 318.157745 423.080261 C 319.982239 421.774048 398.767242 338.995178 400.0112 337.689087 C 404.07486 333.362366 410.584991 326.464111 412.699738 324.259918 C 415.270599 321.565979 421.532013 314.95343 423.273529 313.035034 C 426.300507 309.687927 430.115417 303.320343 432.31311 297.891541 C 433.100952 295.891479 434.510742 290.585083 434.801025 288.462585 C 435.132721 285.646179 435.091248 276.543701 434.718079 274.462006 C 434.552246 273.564026 434.34491 272.257843 434.261963 271.604797 C 434.137573 270.910858 433.888763 269.931213 433.681458 269.359772 C 433.474121 268.78833 432.893555 266.951538 432.395996 265.278015 C 431.898407 263.604431 430.944733 260.461487 430.239777 258.338928 C 428.332367 252.379517 391.635132 134.252319 391.469269 134.08902 C 391.261932 133.925781 387.115356 123.231476 386.244568 122.211029 C 385.871399 121.762024 384.378632 119.516998 383.59079 118.210846 C 383.341949 117.761871 382.96875 117.312866 382.761475 117.149567 C 382.554108 117.02713 381.807739 116.169922 381.102814 115.271942 C 379.817383 113.639252 376.043976 109.761536 375.753723 109.761536 C 375.670776 109.761536 372.768219 107.312439 372.519409 107.108368 C 371.441284 106.210358 369.368011 104.863373 368.994781 104.863373 C 368.787476 104.863373 368.538727 104.700073 368.45575 104.496033 C 368.041107 103.393921 351.330383 97.761047 351.330383 97.761047 C 351.330383 97.761047 216.77388 66.698547 215.529922 66.331238 C 213.249298 65.759735 211.880936 65.47403 207.651413 64.861725 C 204.914658 64.453583 197.824005 64.494415 195.211655 64.902527 Z" />
        <path id="path1" fill="#0c0c0c" fill-rule="evenodd" stroke="none"
            d="M 97.215279 152.401367 C 94.455093 152.825165 91.580185 154.517456 88.885025 157.362518 C 87.388176 158.924896 76.005394 171.069458 75.53521 171.549927 C 72.676559 174.267914 70.86187 176.888702 69.961143 179.614136 C 68.92334 182.828308 69.213844 186.239441 71.209473 193.137695 C 72.167168 196.524323 75.468086 208.240967 75.616112 208.666992 C 76.180725 210.291931 77.977333 215.94342 79.479324 217.539032 C 80.981308 219.134644 83.611542 220.594147 85.60096 221.012482 C 86.180824 221.149872 108.256371 226.41275 108.711334 226.547028 C 111.069389 227.220581 115.028915 227.154572 117.172676 226.387421 C 119.399704 225.622345 123.226135 222.518219 126.356934 218.904755 C 127.000763 218.141479 138.684128 205.635284 139.068008 205.275665 C 140.092636 204.275757 141.707275 201.32193 142.384583 199.206116 C 143.103546 197.091339 142.868881 193.107483 141.87056 189.678802 C 141.295731 187.655029 137.393845 173.614655 136.974396 172.045868 C 136.553955 170.518036 136.136536 168.867218 136.063416 168.455322 C 135.887711 167.13858 133.461533 162.485291 132.40538 161.392853 C 131.511703 160.468506 126.865631 157.974792 126.855484 158.384674 C 126.853455 158.466614 101.048889 152.37326 100.34005 152.396729 C 99.672852 152.421204 97.842873 152.293884 97.215279 152.401367 Z" />
    </g>
</svg>
