<?xml version="1.0" encoding="UTF-8"?>
<!-- Generated by Pixelmator Pro 3.2.3 -->
<svg width="500" height="500" viewBox="0 0 500 500" xmlns="http://www.w3.org/2000/svg"
    xmlns:xlink="http://www.w3.org/1999/xlink">
    <g id="bsci-glyph-dark">
        <linearGradient id="linearGradient1" x1="231.9997" y1="1.407755" x2="259.628906" y2="498.027344"
            gradientUnits="userSpaceOnUse">
            <stop offset="0" stop-color="#373737" stop-opacity="1" />
            <stop offset="1" stop-color="#1a1a1a" stop-opacity="1" />
        </linearGradient>
        <path id="Rounded-Rectangle-copy" fill="url(#linearGradient1)" fill-rule="evenodd" stroke="none"
            d="M 0 377 C -0 444.93103 55.068977 500 123 500 L 377 500 C 444.93103 500 500 444.93103 500 377 L 500 123 C 500 55.06897 444.93103 0 377 0 L 123 0 C 55.068977 0 0 55.06897 0 123 Z" />
        <path id="Path" fill="#f1f1f1" fill-rule="evenodd" stroke="none"
            d="M 195.211655 65.902527 C 191.562668 66.47403 190.401642 66.718933 187.540512 67.535309 C 184.223221 68.474121 184.057373 68.514954 179.869324 70.392578 C 176.842331 71.739563 170.746857 75.494781 168.673569 77.249939 C 166.558792 79.045959 164.236725 81.331787 161.831696 83.984955 C 160.463333 85.495209 158.597366 87.536102 157.685135 88.474915 C 156.772873 89.454559 155.072784 91.332184 153.911743 92.638336 C 152.750687 93.985321 151.092072 95.781311 150.304199 96.638519 C 149.474899 97.495697 147.650406 99.536591 146.199112 101.128479 C 144.747803 102.679565 143.296478 104.271484 142.964783 104.638824 C 142.633026 105.006195 141.223221 106.557281 139.854828 108.108368 C 138.486465 109.659454 137.446182 110.541107 137 111 C 131.646667 116.505676 139.255051 122.947876 143 127 C 147.453232 131.818512 153.982895 139.414276 161.126785 135.701324 C 161.679871 135.413879 210.512543 100.475403 211.507721 100.06723 C 212.1297 99.781494 212.627289 99.414124 212.627289 99.250854 C 212.627289 99.046783 212.751709 98.965118 212.959045 99.005951 C 213.124893 99.046783 213.829819 98.80188 214.493256 98.434479 C 216.193375 97.577332 220.71315 96.026245 222.330276 95.781311 C 223.035217 95.658875 224.445053 95.454773 225.398773 95.250702 C 227.969635 94.801697 234.313904 95.087433 237.50679 95.822144 C 241.819229 96.801788 245.053558 98.067139 256.373718 103.006104 C 257.28595 103.414307 259.898315 104.516388 262.178925 105.45517 C 266.532837 107.25116 342.622559 139.497375 345.400787 140.721924 C 353.030487 144.028168 353.776855 144.354706 354.274445 144.43634 C 355.10379 144.640442 362.484711 148.354858 362.733459 148.681396 C 362.85788 148.885498 363.562775 149.334503 364.309174 149.701843 C 366.216583 150.681488 372.602295 157.00827 374.385345 159.743073 C 376.914734 163.579987 378.988068 168.437317 379.485626 171.743561 C 379.65152 172.600739 379.817383 173.417114 379.900269 173.580383 C 380.066193 173.825287 380.522308 177.2948 380.771057 180.070435 C 380.854004 180.805145 380.978455 182.152161 381.144287 183.131775 C 381.268677 184.070587 381.476044 185.948242 381.641846 187.295227 C 381.766266 188.642212 392.298584 276.768188 392.38147 277.911102 C 392.464417 279.013184 392.630341 280.686707 392.7547 281.584717 C 392.837616 282.482727 393.044983 284.237885 393.210846 285.462402 C 393.335205 286.686951 393.542603 288.360474 393.625488 289.136047 C 394.869446 298.034363 394.620636 303.463135 392.713226 309.340942 C 392.38147 310.443024 391.925415 311.545105 391.759552 311.789978 C 391.552155 311.99411 391.386383 312.320648 391.386383 312.524719 C 391.303406 313.25946 389.022766 317.259613 387.488586 319.34137 C 385.332367 322.23941 380.522308 326.892639 377.868469 328.729462 C 376.748901 329.504974 375.629303 330.280548 375.380554 330.443787 C 375.173187 330.647919 373.680481 331.75 372.063263 332.892944 C 370.487549 334.07663 288.509705 393.507568 287.680389 394.160645 C 283.326477 397.589386 276.152893 402.242615 273.167358 403.548767 C 270.596466 404.691711 266.449921 405.91626 265.869385 405.712158 C 265.579132 405.589691 265.288879 405.712158 265.205933 405.957062 C 265.081543 406.242798 263.174103 406.446838 259.649506 406.487671 C 255.37854 406.528503 253.595505 406.365265 250.775818 405.671326 C 246.546326 404.610016 242.068008 403.018127 241.321625 402.32428 C 241.031372 402.038513 240.492325 401.79361 240.202042 401.79361 C 239.870331 401.79361 238.626343 401.344604 237.423843 400.813995 C 231.411301 398.079193 128.244415 353.628418 128.078552 353.628418 C 127.912682 353.628418 126.502838 352.852905 124.927147 351.954895 C 119.163406 348.526184 114.72657 343.668854 111.948357 337.791077 C 111.326363 336.525726 110.828781 335.382813 110.787308 335.260315 C 110.787308 335.137878 110.662918 334.770508 110.497055 334.444 C 110.082397 333.382751 109.37748 330.933655 109.170143 329.913147 C 109.045753 329.382568 108.796959 327.99469 108.589622 326.892639 C 108.340836 325.749756 102.16243 272.84967 101.913628 270.604675 C 101.291649 265.461609 101.291649 265.380005 100.420868 263.747284 C 98.098778 259.298096 91.626419 260.055298 87 259 C 83.118515 258.114624 75.126732 257.706177 75.126732 257.706177 C 75.126732 257.706177 71.187485 256.563293 69.072723 257.461304 C 66.999443 258.359314 65.548134 259.828735 64.967621 261.788025 C 64.51149 263.257446 64.594414 263.86972 65.672523 267.420898 C 66.335983 269.584229 66.875038 271.461853 66.916504 271.58432 C 66.916504 271.706787 67.040901 272.074158 67.165306 272.400696 C 67.579956 273.461945 96.771881 366.975891 97.145065 368.118774 C 98.886635 373.302643 102.079491 379.058014 105.811417 383.629639 C 109.29454 387.915466 115.638809 393.303528 119.868324 395.630127 C 120.697632 396.119934 122.024544 396.813782 122.770927 397.222015 C 123.890503 397.834229 128.617615 399.875153 129.281036 399.997681 C 129.405472 399.997681 233.899246 424.488434 235.226135 424.814941 C 236.843338 425.223145 246.421906 427.468109 247.458557 427.672241 C 248.039093 427.794678 249.697708 428.162048 251.190475 428.529388 C 252.641785 428.896759 254.258957 429.26413 254.715088 429.345764 C 255.171219 429.427399 255.544403 429.509033 255.544403 429.549835 C 255.544403 429.590637 255.959045 429.672333 256.456665 429.794769 C 256.954224 429.876404 259.31778 430.407043 261.639893 430.937653 C 276.650482 434.488831 275.98703 434.325562 279.179871 434.774536 C 281.501984 435.101105 290.707367 435.060272 293.27829 434.733704 C 294.190521 434.611267 295.766235 434.325562 296.802856 434.080627 C 297.839508 433.794891 298.959076 433.550018 299.332275 433.468384 C 300.327454 433.22345 303.893524 432.039734 304.888702 431.631531 C 307.832764 430.407043 310.486572 429.059998 310.693909 428.733521 C 310.859741 428.488586 311.150024 428.406921 311.357361 428.529388 C 311.564697 428.692688 311.73053 428.57019 311.73053 428.284485 C 311.73053 427.998749 311.85495 427.917114 311.97934 428.039551 C 312.186676 428.243683 315.462463 426.284424 316.291779 425.468079 C 316.416199 425.345581 317.245483 424.733337 318.157745 424.080261 C 319.982239 422.774048 398.767242 339.995178 400.0112 338.689087 C 404.07486 334.362366 410.584991 327.464111 412.699738 325.259918 C 415.270599 322.565979 421.532013 315.95343 423.273529 314.035034 C 426.300507 310.687927 430.115417 304.320343 432.31311 298.891541 C 433.100952 296.891479 434.510742 291.585083 434.801025 289.462585 C 435.132721 286.646179 435.091248 277.543701 434.718079 275.462006 C 434.552246 274.564026 434.34491 273.257843 434.261963 272.604797 C 434.137573 271.910858 433.888763 270.931213 433.681458 270.359772 C 433.474121 269.78833 432.893555 267.951538 432.395996 266.278015 C 431.898407 264.604431 430.944733 261.461487 430.239777 259.338928 C 428.332367 253.379517 391.635132 135.252319 391.469269 135.08902 C 391.261932 134.925781 387.115356 124.231476 386.244568 123.211029 C 385.871399 122.762024 384.378632 120.516998 383.59079 119.210846 C 383.341949 118.761871 382.96875 118.312866 382.761475 118.149567 C 382.554108 118.02713 381.807739 117.169922 381.102814 116.271942 C 379.817383 114.639252 376.043976 110.761536 375.753723 110.761536 C 375.670776 110.761536 372.768219 108.312439 372.519409 108.108368 C 371.441284 107.210358 369.368011 105.863373 368.994781 105.863373 C 368.787476 105.863373 368.538727 105.700073 368.45575 105.496033 C 368.041107 104.393921 351.330383 98.761047 351.330383 98.761047 C 351.330383 98.761047 216.77388 67.698547 215.529922 67.331238 C 213.249298 66.759735 211.880936 66.47403 207.651413 65.861725 C 204.914658 65.453583 197.824005 65.494415 195.211655 65.902527 Z" />
        <path id="path1" fill="#f1f1f1" fill-rule="evenodd" stroke="none"
            d="M 97.215279 153.401367 C 94.455093 153.825165 91.580185 155.517456 88.885025 158.362518 C 87.388176 159.924896 76.005394 172.069458 75.53521 172.549927 C 72.676559 175.267914 70.86187 177.888702 69.961143 180.614136 C 68.92334 183.828308 69.213844 187.239441 71.209473 194.137695 C 72.167168 197.524323 75.468086 209.240967 75.616112 209.666992 C 76.180725 211.291931 77.977333 216.94342 79.479324 218.539032 C 80.981308 220.134644 83.611542 221.594147 85.60096 222.012482 C 86.180824 222.149872 108.256371 227.41275 108.711334 227.547028 C 111.069389 228.220581 115.028915 228.154572 117.172676 227.387421 C 119.399704 226.622345 123.226135 223.518219 126.356934 219.904755 C 127.000763 219.141479 138.684128 206.635284 139.068008 206.275665 C 140.092636 205.275757 141.707275 202.32193 142.384583 200.206116 C 143.103546 198.091339 142.868881 194.107483 141.87056 190.678802 C 141.295731 188.655029 137.393845 174.614655 136.974396 173.045868 C 136.553955 171.518036 136.136536 169.867218 136.063416 169.455322 C 135.887711 168.13858 133.461533 163.485291 132.40538 162.392853 C 131.511703 161.468506 126.865631 158.974792 126.855484 159.384674 C 126.853455 159.466614 101.048889 153.37326 100.34005 153.396729 C 99.672852 153.421204 97.842873 153.293884 97.215279 153.401367 Z" />
    </g>
</svg>
