<?xml version="1.0" encoding="UTF-8"?>
<!-- Generated by Pixelmator Pro 3.2.3 -->
<svg width="500" height="500" viewBox="0 0 500 500" xmlns="http://www.w3.org/2000/svg" xmlns:xlink="http://www.w3.org/1999/xlink">
    <g id="bsci-glyph">
        <path id="Rounded-Rectangle" fill="#e0e0e0" fill-rule="evenodd" stroke="none" d="M 0 377 C -0 444.93103 55.068977 500 123 500 L 377 500 C 444.93103 500 500 444.93103 500 377 L 500 123 C 500 55.06897 444.93103 0 377 0 L 123 0 C 55.068977 0 0 55.06897 0 123 Z"/>
        <path id="Path" fill="#0c0c0c" fill-rule="evenodd" stroke="none" d="M 195.211655 65.902527 C 191.562668 66.47403 190.401642 66.718933 187.540512 67.535309 C 184.223221 68.474121 184.057373 68.514954 179.869324 70.392578 C 176.842331 71.739563 170.746857 75.494781 168.673569 77.249939 C 166.558792 79.045959 164.236725 81.331787 161.831696 83.984955 C 160.463333 85.495209 158.597366 87.536102 157.685135 88.474915 C 156.772873 89.454559 155.072784 91.332184 153.911743 92.638336 C 152.750687 93.985321 151.092072 95.781311 150.304199 96.638519 C 149.474899 97.495697 147.650406 99.536591 146.199112 101.128479 C 144.747803 102.679565 143.296478 104.271484 142.964783 104.638824 C 142.633026 105.006195 141.223221 106.557281 139.854828 108.108368 C 138.486465 109.659454 137.446182 110.541107 137 111 C 131.646667 116.505676 139.255051 122.947876 143 127 C 147.453232 131.818512 153.982895 139.414276 161.126785 135.701324 C 161.679871 135.413879 167.719864 131.741943 170.332184 129.660248 C 170.66391 129.415314 171.907898 128.476532 173.110413 127.619354 C 174.271454 126.762146 175.68129 125.741699 176.220337 125.374359 C 176.759399 125.007019 178.583862 123.660004 180.283981 122.435486 C 184.0159 119.741455 185.964798 118.312866 188.162491 116.680145 C 189.074753 115.986237 190.733368 114.761688 191.852951 113.90451 C 192.972519 113.088165 194.092072 112.394257 194.340881 112.394257 C 194.589676 112.394257 194.797012 112.230957 194.797012 112.026886 C 194.797012 111.863617 195.543396 111.210541 196.455627 110.598236 C 197.367889 109.985992 198.445999 109.251251 198.860641 108.924713 C 200.851013 107.25116 210.512543 100.475403 211.507721 100.06723 C 212.1297 99.781494 212.627289 99.414124 212.627289 99.250854 C 212.627289 99.046783 212.751709 98.965118 212.959045 99.005951 C 213.124893 99.046783 213.829819 98.80188 214.493256 98.434479 C 216.193375 97.577332 220.71315 96.026245 222.330276 95.781311 C 223.035217 95.658875 224.445053 95.454773 225.398773 95.250702 C 227.969635 94.801697 234.313904 95.087433 237.50679 95.822144 C 241.819229 96.801788 245.053558 98.067139 256.373718 103.006104 C 257.28595 103.414307 259.898315 104.516388 262.178925 105.45517 C 266.532837 107.25116 267.071899 107.496094 271.716064 109.536987 C 273.333221 110.271698 274.825989 110.883972 275.033325 110.924774 C 275.282104 110.965637 276.194366 111.373779 277.106628 111.781982 C 278.01886 112.190155 278.848175 112.557526 278.972565 112.598328 C 279.096985 112.63916 279.760406 112.884064 280.423859 113.210602 C 283.077667 114.353516 285.15097 115.210693 289.131683 116.884216 C 291.412323 117.823029 294.107574 118.965942 295.144226 119.414948 C 296.180878 119.863953 297.590729 120.476196 298.25415 120.761932 C 298.959076 121.047638 300.617706 121.782379 301.986084 122.394623 C 303.354462 123.006927 304.681366 123.537567 304.888702 123.578369 C 305.137482 123.619171 305.883881 123.986542 306.588776 124.353912 C 307.293701 124.721252 307.998627 124.884552 308.16449 124.762085 C 308.288879 124.598816 308.413269 124.68045 308.413269 124.925354 C 308.413269 125.129456 308.662079 125.333557 308.952332 125.333557 C 309.201141 125.333557 311.108551 126.1091 313.098938 127.047882 C 315.130737 127.945892 316.872314 128.721436 316.996704 128.721436 C 317.079651 128.721436 317.950439 129.047974 318.904144 129.496979 C 319.857849 129.905151 324.004425 131.660309 328.109528 133.415497 C 332.214661 135.129852 336.568573 137.007477 337.771057 137.538116 C 338.973572 138.068756 340.051666 138.517731 340.134613 138.517731 C 340.21756 138.517731 342.622559 139.497375 345.400787 140.721924 C 353.030487 144.028168 353.776855 144.354706 354.274445 144.43634 C 355.10379 144.640442 362.484711 148.354858 362.733459 148.681396 C 362.85788 148.885498 363.562775 149.334503 364.309174 149.701843 C 366.216583 150.681488 372.602295 157.00827 374.385345 159.743073 C 376.914734 163.579987 378.988068 168.437317 379.485626 171.743561 C 379.65152 172.600739 379.817383 173.417114 379.900269 173.580383 C 380.066193 173.825287 380.522308 177.2948 380.771057 180.070435 C 380.854004 180.805145 380.978455 182.152161 381.144287 183.131775 C 381.268677 184.070587 381.476044 185.948242 381.641846 187.295227 C 381.766266 188.642212 381.973602 190.070862 382.015076 190.438202 C 382.097961 190.805542 382.305359 192.397461 382.429718 193.907715 C 382.595581 195.417999 382.802917 197.213989 382.885803 197.907898 C 383.010223 198.560974 383.176147 199.948761 383.259033 200.969208 C 383.383423 201.989685 383.549316 203.459137 383.673706 204.23468 C 383.798065 205.010223 384.005432 206.847015 384.129822 208.316467 C 384.378632 210.806366 384.585938 212.194183 384.710327 212.194183 C 384.710327 212.194183 384.834747 213.296265 384.917694 214.64325 C 385.083496 216.929077 385.207947 218.357697 385.747009 222.276215 C 386.203156 225.664124 386.368927 227.011078 386.576324 229.337738 C 386.742188 230.684692 386.90802 232.235779 386.990967 232.80722 C 387.15683 233.950134 387.612946 237.664612 387.820282 239.542206 C 387.861755 240.195282 388.027618 241.623901 388.193451 242.685181 C 388.691071 246.562912 388.939819 248.563004 389.105713 250.358963 C 389.18866 251.379425 389.354462 253.012131 389.520386 254.032578 C 389.644806 255.05304 389.810608 256.522491 389.893555 257.298035 C 389.976501 258.073578 390.183838 259.461365 390.308197 260.359375 C 390.391174 261.257385 390.59848 263.012543 390.72287 264.237091 C 390.84729 265.461609 391.054626 267.012695 391.137512 267.706604 C 391.303406 268.808716 391.676605 272.074158 391.966827 274.849731 C 392.049774 275.421204 392.132721 275.870178 392.174194 275.870178 C 392.215668 275.870178 392.298584 276.768188 392.38147 277.911102 C 392.464417 279.013184 392.630341 280.686707 392.7547 281.584717 C 392.837616 282.482727 393.044983 284.237885 393.210846 285.462402 C 393.335205 286.686951 393.542603 288.360474 393.625488 289.136047 C 394.869446 298.034363 394.620636 303.463135 392.713226 309.340942 C 392.38147 310.443024 391.925415 311.545105 391.759552 311.789978 C 391.552155 311.99411 391.386383 312.320648 391.386383 312.524719 C 391.303406 313.25946 389.022766 317.259613 387.488586 319.34137 C 385.332367 322.23941 380.522308 326.892639 377.868469 328.729462 C 376.748901 329.504974 375.629303 330.280548 375.380554 330.443787 C 375.173187 330.647919 373.680481 331.75 372.063263 332.892944 C 370.487549 334.07663 368.994781 335.17868 368.746002 335.34198 C 368.414276 335.627686 362.194427 340.117706 358.379547 342.811707 C 357.757599 343.260681 357.0112 343.872925 356.720917 344.117828 C 356.389221 344.403564 355.974548 344.648438 355.767181 344.648438 C 355.518433 344.648438 355.269623 344.770966 355.186737 344.975006 C 355.145264 345.138245 353.652466 346.281189 351.952362 347.505737 C 350.252289 348.730225 348.676575 349.873169 348.427765 350.077271 C 347.017944 351.13855 344.861725 352.689636 344.073853 353.220276 C 343.576294 353.546753 341.088348 355.342773 338.558899 357.220398 C 335.988037 359.098022 333.500092 360.934845 332.961029 361.302185 C 332.421967 361.669556 330.597473 363.016602 328.8974 364.241089 C 327.238739 365.465637 324.419067 367.506531 322.677521 368.731049 C 320.935944 369.955597 319.277313 371.180115 319.028503 371.384277 C 318.779724 371.62912 317.660156 372.445496 316.499115 373.221008 C 315.379517 373.996582 314.177032 374.853729 313.803833 375.139465 C 312.642792 376.078308 310.19632 377.9151 309.242584 378.527344 C 307.708374 379.547791 304.515503 381.915283 303.934998 382.486755 C 303.644714 382.7724 303.271515 383.017365 303.105652 383.017365 C 302.856873 383.017365 301.944611 383.67041 299.829865 385.466431 C 299.539581 385.670502 299.166412 385.874573 298.917603 385.874573 C 298.710297 385.874573 298.461487 385.997101 298.37854 386.160339 C 298.25415 386.486908 295.517426 388.609436 293.485596 389.95639 C 292.366028 390.731934 288.509705 393.507568 287.680389 394.160645 C 283.326477 397.589386 276.152893 402.242615 273.167358 403.548767 C 270.596466 404.691711 266.449921 405.91626 265.869385 405.712158 C 265.579132 405.589691 265.288879 405.712158 265.205933 405.957062 C 265.081543 406.242798 263.174103 406.446838 259.649506 406.487671 C 255.37854 406.528503 253.595505 406.365265 250.775818 405.671326 C 246.546326 404.610016 242.068008 403.018127 241.321625 402.32428 C 241.031372 402.038513 240.492325 401.79361 240.202042 401.79361 C 239.870331 401.79361 238.626343 401.344604 237.423843 400.813995 C 231.411301 398.079193 222.744934 394.364777 222.288834 394.323975 C 221.998581 394.323975 221.749786 394.119843 221.749786 393.915741 C 221.749786 393.670837 221.625381 393.589172 221.500977 393.752502 C 221.376602 393.874939 220.588715 393.630005 219.759415 393.221893 C 218.888626 392.81369 215.612839 391.344238 212.419952 389.95639 C 209.227097 388.609436 206.158615 387.221588 205.57811 386.935852 C 204.997604 386.609314 204.417084 386.323578 204.251205 386.282776 C 203.587738 386.201172 200.477844 384.89502 196.04097 382.894928 C 194.797012 382.323486 190.691895 380.568237 186.918533 378.935547 C 183.145111 377.343628 179.537598 375.792603 178.832672 375.466003 C 176.095947 374.282318 173.359192 373.098602 172.198151 372.608795 C 171.534698 372.282227 167.678375 370.649475 163.697662 368.935181 C 159.716949 367.179993 155.694763 365.465637 154.782532 365.057434 C 153.87027 364.649292 150.884735 363.383881 148.14798 362.200195 C 145.411255 361.057312 142.425705 359.751099 141.513474 359.342926 C 140.601242 358.934784 138.445007 358.036774 136.744888 357.302002 C 135.0448 356.567291 132.473923 355.46521 131.022614 354.812164 C 129.57132 354.159058 128.244415 353.628418 128.078552 353.628418 C 127.912682 353.628418 126.502838 352.852905 124.927147 351.954895 C 119.163406 348.526184 114.72657 343.668854 111.948357 337.791077 C 111.326363 336.525726 110.828781 335.382813 110.787308 335.260315 C 110.787308 335.137878 110.662918 334.770508 110.497055 334.444 C 110.082397 333.382751 109.37748 330.933655 109.170143 329.913147 C 109.045753 329.382568 108.796959 327.99469 108.589622 326.892639 C 108.340836 325.749756 108.050568 323.749634 107.926178 322.402679 C 107.677376 319.831177 107.594452 318.933136 106.889526 313.218658 C 106.640739 311.300171 106.391937 309.014374 106.267532 308.116394 C 106.184608 307.218384 105.97728 305.54483 105.811417 304.44278 C 105.645554 303.299866 105.479691 301.748779 105.438225 300.973236 C 105.355301 300.197723 105.272362 299.544617 105.230904 299.544617 C 105.147964 299.544617 104.733307 294.973022 104.650368 293.136169 C 104.650368 292.279022 104.525978 291.585083 104.401581 291.585083 C 104.277191 291.585083 104.152786 291.258606 104.152786 290.850403 C 104.111313 289.258484 103.323471 281.99292 103.157608 281.99292 C 103.157608 281.99292 103.033203 281.054077 102.950279 279.951996 C 102.867355 278.809113 102.701485 277.176392 102.577087 276.278381 C 102.494148 275.380371 102.16243 272.84967 101.913628 270.604675 C 101.291649 265.461609 101.291649 265.380005 100.420868 263.747284 C 98.098778 259.298096 91.626419 260.055298 87 259 C 83.118515 258.114624 75.126732 257.706177 75.126732 257.706177 C 75.126732 257.706177 71.187485 256.563293 69.072723 257.461304 C 66.999443 258.359314 65.548134 259.828735 64.967621 261.788025 C 64.51149 263.257446 64.594414 263.86972 65.672523 267.420898 C 66.335983 269.584229 66.875038 271.461853 66.916504 271.58432 C 66.916504 271.706787 67.040901 272.074158 67.165306 272.400696 C 67.579956 273.461945 69.653244 280.278534 69.736176 280.727539 C 69.777641 280.972473 70.026443 281.707153 70.275238 282.401093 C 70.524025 283.054169 71.311882 285.544067 72.058266 287.911499 C 72.763184 290.278931 73.551033 292.646362 73.716896 293.217865 C 73.924225 293.789307 74.46328 295.626068 74.960869 297.299591 C 75.458466 298.973175 75.956039 300.646698 76.080444 300.973206 C 76.246307 301.299805 76.370712 301.708008 76.41217 301.871216 C 76.495094 302.075348 76.536575 302.238586 76.619499 302.279419 C 76.660965 302.361084 76.743904 302.728455 76.826828 303.136627 C 77.034149 304.157043 79.397713 311.789978 80.185562 313.953369 C 80.558754 314.892151 80.89048 315.912628 80.931946 316.198364 C 80.973404 316.443268 81.471001 318.035156 81.96859 319.708679 C 82.507645 321.382233 82.96376 323.014954 83.088165 323.382263 C 83.171104 323.749634 84.083336 326.688599 85.161446 329.953979 C 86.861549 335.17868 88.478722 340.403381 88.810448 341.587158 C 88.851913 341.791199 89.266563 343.097351 89.681221 344.444397 C 90.137344 345.791382 90.427612 347.0159 90.386154 347.179199 C 90.344673 347.383301 90.510536 347.505737 90.759331 347.505737 C 90.966667 347.505737 91.091057 347.669006 90.966667 347.832275 C 90.883728 347.995575 91.13253 349.260925 91.588654 350.567078 C 92.044777 351.914063 92.5009 353.30188 92.583839 353.628418 C 92.666763 353.954956 93.122879 355.46521 93.620468 356.975464 C 94.076599 358.485748 94.491257 359.873596 94.491257 360.036835 C 94.532715 360.240906 94.781517 361.016479 95.113251 361.791992 C 95.444977 362.567566 95.735229 363.588013 95.818153 364.037018 C 95.901093 364.485992 96.108421 365.139099 96.232819 365.465637 C 96.357208 365.792175 96.771881 366.975891 97.145065 368.118774 C 98.886635 373.302643 102.079491 379.058014 105.811417 383.629639 C 109.29454 387.915466 115.638809 393.303528 119.868324 395.630127 C 120.697632 396.119934 122.024544 396.813782 122.770927 397.222015 C 123.890503 397.834229 128.617615 399.875153 129.281036 399.997681 C 129.405472 399.997681 129.778656 400.120087 130.110382 400.242523 C 131.312897 400.691559 136.869293 402.120178 138.61087 402.446716 C 140.559753 402.814087 141.181732 402.977295 142.964783 403.426331 C 145.079529 403.997772 146.033234 404.201904 147.526001 404.446777 C 148.106537 404.569214 149.226089 404.814178 150.013947 405.018219 C 153.787338 405.997864 154.94838 406.28363 156.855804 406.691742 C 159.592545 407.263184 159.965759 407.344849 164.319641 408.365326 C 166.392944 408.814331 168.383316 409.263306 168.797974 409.344971 C 169.212616 409.426605 169.959 409.630676 170.456589 409.793915 C 170.954193 409.957245 171.74202 410.161285 172.198151 410.202087 C 172.654282 410.283722 174.147049 410.610321 175.515411 410.977692 C 176.883774 411.304169 178.666824 411.712372 179.454651 411.834808 C 180.242538 411.957306 181.237701 412.243042 181.652344 412.447083 C 182.025528 412.651215 182.357285 412.773651 182.357285 412.651215 C 182.357285 412.528778 183.228058 412.692017 184.306183 413.018585 C 185.384293 413.345093 186.337967 413.508392 186.420929 413.426697 C 186.545319 413.345093 186.918533 413.426697 187.333176 413.630829 C 187.70636 413.8349 188.660065 414.120667 189.447922 414.243103 C 190.235764 414.36554 191.189499 414.569672 191.562668 414.692139 C 191.935852 414.814545 192.599304 414.977783 193.013962 415.059509 C 193.42865 415.141113 196.16539 415.753387 199.067978 416.447266 C 201.970612 417.141174 204.707336 417.794281 205.080505 417.875916 C 205.45372 417.916748 206.241577 418.120789 206.822083 418.243286 C 209.268585 418.896332 216.690948 420.569885 217.976395 420.773956 C 218.764252 420.896454 219.510605 421.100525 219.676483 421.182159 C 219.925293 421.345459 220.630188 421.508728 223.408401 422.039368 C 223.988922 422.161804 224.818268 422.365906 225.274368 422.488342 C 225.730499 422.651611 226.393921 422.81488 226.725677 422.855682 C 227.38913 422.97818 233.899246 424.488434 235.226135 424.814941 C 236.843338 425.223145 246.421906 427.468109 247.458557 427.672241 C 248.039093 427.794678 249.697708 428.162048 251.190475 428.529388 C 252.641785 428.896759 254.258957 429.26413 254.715088 429.345764 C 255.171219 429.427399 255.544403 429.509033 255.544403 429.549835 C 255.544403 429.590637 255.959045 429.672333 256.456665 429.794769 C 256.954224 429.876404 259.31778 430.407043 261.639893 430.937653 C 276.650482 434.488831 275.98703 434.325562 279.179871 434.774536 C 281.501984 435.101105 290.707367 435.060272 293.27829 434.733704 C 294.190521 434.611267 295.766235 434.325562 296.802856 434.080627 C 297.839508 433.794891 298.959076 433.550018 299.332275 433.468384 C 300.327454 433.22345 303.893524 432.039734 304.888702 431.631531 C 307.832764 430.407043 310.486572 429.059998 310.693909 428.733521 C 310.859741 428.488586 311.150024 428.406921 311.357361 428.529388 C 311.564697 428.692688 311.73053 428.57019 311.73053 428.284485 C 311.73053 427.998749 311.85495 427.917114 311.97934 428.039551 C 312.186676 428.243683 315.462463 426.284424 316.291779 425.468079 C 316.416199 425.345581 317.245483 424.733337 318.157745 424.080261 C 319.982239 422.774048 326.119171 416.733032 331.841461 410.569458 C 333.914734 408.406128 336.734406 405.38562 338.18573 403.916168 C 339.595581 402.487518 340.756622 401.222168 340.756622 401.181366 C 340.756622 401.099731 341.62738 400.160889 342.746948 399.058807 C 344.986115 396.732178 352.781677 388.527771 356.347748 384.690857 C 357.716125 383.262238 359.955261 380.894836 361.406525 379.425354 C 362.816406 377.996704 363.977417 376.731384 363.977417 376.64978 C 363.977417 376.608948 364.765289 375.710938 365.760468 374.731323 C 366.714203 373.751648 369.741211 370.608704 372.477936 367.710571 C 379.070953 360.771545 378.946594 360.894012 383.46637 356.118317 C 385.622589 353.791687 388.649597 350.60791 390.22525 349.015991 C 391.759552 347.464905 393.00351 346.117889 393.00351 346.077087 C 393.00351 345.995483 394.081635 344.852539 395.408478 343.505554 C 396.693909 342.199402 398.767242 339.995178 400.0112 338.689087 C 404.07486 334.362366 410.584991 327.464111 412.699738 325.259918 C 415.270599 322.565979 421.532013 315.95343 423.273529 314.035034 C 426.300507 310.687927 430.115417 304.320343 432.31311 298.891541 C 433.100952 296.891479 434.510742 291.585083 434.801025 289.462585 C 435.132721 286.646179 435.091248 277.543701 434.718079 275.462006 C 434.552246 274.564026 434.34491 273.257843 434.261963 272.604797 C 434.137573 271.910858 433.888763 270.931213 433.681458 270.359772 C 433.474121 269.78833 432.893555 267.951538 432.395996 266.278015 C 431.898407 264.604431 430.944733 261.461487 430.239777 259.338928 C 428.332367 253.379517 428.166473 252.80806 428.083557 252.277435 C 428.042084 251.991684 427.876251 251.542679 427.710327 251.256973 C 427.503052 251.012039 427.461578 250.767166 427.627441 250.767166 C 427.751801 250.767166 427.585968 250.236526 427.212769 249.542618 C 426.881012 248.889511 426.59079 248.195618 426.59079 248.032349 C 426.59079 247.583359 423.397888 237.174774 422.444214 234.439972 C 422.236877 233.86853 421.573425 231.745972 420.99292 229.745911 C 420.37088 227.704987 419.748962 225.623291 419.541565 225.051849 C 419.126923 223.868103 416.92923 216.847443 416.804901 216.357605 C 416.763428 216.194336 416.680481 215.990234 416.639008 215.867798 C 416.597534 215.745331 416.514557 215.541229 416.473145 215.337158 C 416.265808 214.561584 415.187714 211.132904 414.441315 208.928741 C 414.026642 207.581757 413.612 206.275574 413.570526 206.071472 C 413.487579 205.826569 413.11438 204.561218 412.699738 203.214233 C 412.243591 201.867218 411.911896 200.683502 411.870422 200.561066 C 411.828949 200.234528 409.258087 192.152557 407.848267 187.907471 C 407.143341 185.784943 406.562836 183.825714 406.521362 183.621613 C 406.438446 183.376709 405.98233 181.825623 405.484711 180.152069 C 404.945618 178.478546 404.489502 176.886627 404.448029 176.682526 C 404.323639 176.111084 400.881989 165.416779 400.591705 164.641235 C 400.467346 164.314697 400.301483 163.82489 400.218536 163.539154 C 400.052673 162.722778 395.864624 149.375305 395.449951 148.314056 C 395.242676 147.742615 394.993835 146.926239 394.910919 146.477234 C 394.78656 146.028229 394.040161 143.619995 393.252258 141.170929 C 392.422943 138.681 391.759552 136.395203 391.759552 136.027863 C 391.759552 135.660461 391.635132 135.252319 391.469269 135.08902 C 391.261932 134.925781 391.137512 134.640045 391.137512 134.517578 C 391.054626 133.374695 387.115356 124.231476 386.244568 123.211029 C 385.871399 122.762024 384.378632 120.516998 383.59079 119.210846 C 383.341949 118.761871 382.96875 118.312866 382.761475 118.149567 C 382.554108 118.02713 381.807739 117.169922 381.102814 116.271942 C 379.817383 114.639252 376.043976 110.761536 375.753723 110.761536 C 375.670776 110.761536 375.007385 110.271698 374.302399 109.618622 C 373.55603 109.006348 372.768219 108.312439 372.519409 108.108368 C 371.441284 107.210358 369.368011 105.863373 368.994781 105.863373 C 368.787476 105.863373 368.538727 105.700073 368.45575 105.496033 C 368.041107 104.393921 355.684296 99.536591 351.330383 98.761047 C 350.666931 98.679382 349.671753 98.475342 349.174164 98.352875 C 348.635101 98.230408 347.84726 98.026337 347.391113 97.90387 C 345.981293 97.577332 344.737335 97.291595 343.493347 97.046692 C 342.829865 96.965057 342.166443 96.760956 342.00058 96.679321 C 341.834717 96.597687 341.088348 96.393616 340.300476 96.271149 C 338.393066 95.903778 337.646667 95.740509 337.646667 95.658875 C 337.646667 95.618073 337.356384 95.536407 337.024658 95.454773 C 336.692932 95.373169 335.946564 95.209869 335.366058 95.087433 C 334.785522 94.964966 333.873291 94.760864 333.292755 94.638428 C 332.712219 94.475159 331.882904 94.31189 331.426788 94.230255 C 330.390167 94.026154 329.602295 93.862885 326.450928 93.046539 C 325.08252 92.719971 323.340942 92.311798 322.553131 92.189331 C 321.765259 92.066895 321.01889 91.862793 320.853027 91.781189 C 320.728638 91.699554 320.148102 91.536255 319.567566 91.413788 C 317.32843 90.964813 315.877136 90.638245 313.720917 90.107635 C 313.51358 90.066803 313.306244 89.985168 313.181854 89.944366 C 312.642792 89.699463 308.703522 88.964722 308.330353 89.046356 C 308.123016 89.087189 307.998627 88.92392 307.998627 88.679016 C 307.998627 88.474915 307.79129 88.39328 307.583984 88.515717 C 307.335175 88.638184 306.547302 88.597382 305.800934 88.352478 C 304.681366 87.985077 300.53479 86.96463 298.088287 86.474823 C 297.715088 86.393188 295.019806 85.740112 292.034302 85.046204 C 289.09021 84.352295 286.270538 83.699219 285.814423 83.617554 C 285.358307 83.53595 284.155792 83.250214 283.119141 82.964478 C 282.08252 82.719574 280.921448 82.515472 280.548279 82.515472 C 280.133606 82.515472 279.80188 82.352234 279.80188 82.148132 C 279.80188 81.903229 279.594543 81.862396 279.387207 81.984863 C 279.138428 82.148132 278.599365 82.10733 278.226196 81.944031 C 277.438324 81.617493 276.774872 81.454224 275.240631 81.168488 C 274.660126 81.086884 271.425781 80.352142 267.984131 79.535797 C 260.727631 77.78064 260.561768 77.739807 259.608032 77.535706 C 259.19339 77.454071 257.078644 76.964264 254.922409 76.433624 C 252.76619 75.902985 250.817291 75.535614 250.651443 75.576477 C 250.485565 75.617279 249.987991 75.494781 249.614792 75.29068 C 249.241577 75.086609 248.370804 74.841705 247.665894 74.719269 C 245.965805 74.433533 240.865494 73.290649 237.092133 72.311005 C 235.392014 71.862 233.608994 71.453857 233.152863 71.372162 C 232.696747 71.33136 231.494247 71.045624 230.457596 70.80072 C 229.420929 70.555847 228.135498 70.229279 227.554993 70.106842 C 226.974487 69.984344 225.025589 69.5354 223.201065 69.086395 C 221.376602 68.63739 219.427704 68.188385 218.847168 68.10675 C 218.266647 68.025116 216.77388 67.698547 215.529922 67.331238 C 213.249298 66.759735 211.880936 66.47403 207.651413 65.861725 C 204.914658 65.453583 197.824005 65.494415 195.211655 65.902527 Z"/>
        <path id="path1" fill="#0c0c0c" fill-rule="evenodd" stroke="none" d="M 98.642082 152.985565 C 98.472488 153.104401 97.842873 153.293884 97.215279 153.401367 C 94.455093 153.825165 91.580185 155.517456 88.885025 158.362518 C 87.388176 159.924896 85.677055 161.728027 85.037285 162.327362 C 84.354858 162.966644 83.840004 163.569061 83.83696 163.691986 C 83.833916 163.814972 83.319054 164.417389 82.679283 165.016724 C 81.997879 165.615021 80.329407 167.378204 78.958473 168.902679 C 77.544891 170.467102 76.005394 172.069458 75.53521 172.549927 C 72.676559 175.267914 70.86187 177.888702 69.961143 180.614136 C 68.92334 183.828308 69.213844 187.239441 71.209473 194.137695 C 72.167168 197.524323 73.048698 200.622009 73.123856 200.951935 C 73.199013 201.281891 73.275185 201.570831 73.316818 201.571869 C 73.358452 201.572906 73.433609 201.902863 73.507744 202.273804 C 73.581886 202.644745 73.924149 203.965576 74.311081 205.164459 C 74.698013 206.363373 74.960045 207.559174 74.911301 207.845032 C 74.863579 208.089935 74.980362 208.420898 75.226128 208.591034 C 75.431259 208.719177 75.627274 209.216125 75.616112 209.666992 C 75.572472 211.429382 77.977333 216.94342 79.479324 218.539032 C 80.981308 220.134644 83.611542 221.594147 85.60096 222.012482 C 86.180824 222.149872 87.920425 222.562042 89.411224 222.927063 C 90.902016 223.292053 93.470284 223.888794 95.044357 224.255859 C 96.660057 224.623932 98.316383 225.034058 98.772362 225.12735 C 99.22731 225.261658 101.464523 225.768158 103.742348 226.316711 C 106.02018 226.865234 108.256371 227.41275 108.711334 227.547028 C 111.069389 228.220581 115.028915 228.154572 117.172676 227.387421 C 119.399704 226.622345 123.226135 223.518219 126.356934 219.904755 C 127.000763 219.141479 128.498627 217.538086 129.652252 216.37735 C 130.80484 215.257568 131.6203 214.293518 131.495377 214.290405 C 131.370468 214.287323 131.713715 213.885712 132.268173 213.366272 C 132.822647 212.846863 134.4048 211.204559 135.817368 209.681152 C 137.229935 208.157684 138.684128 206.635284 139.068008 206.275665 C 140.092636 205.275757 141.707275 202.32193 142.384583 200.206116 C 143.103546 198.091339 142.868881 194.107483 141.87056 190.678802 C 141.295731 188.655029 140.837708 186.962219 140.83873 186.921265 C 140.798096 186.879242 140.722946 186.549255 140.647781 186.21936 C 140.531006 185.888336 140.266937 184.774506 140.00087 183.742645 C 139.776398 182.711823 139.388458 181.553894 139.189407 181.179871 C 138.990356 180.805847 138.762863 179.89798 138.656235 179.157104 C 138.548569 178.457275 138.279434 177.54834 138.122009 177.175354 C 137.922974 176.801331 137.766571 176.38736 137.771637 176.182404 C 137.775696 176.018463 137.393845 174.614655 136.974396 173.045868 C 136.553955 171.518036 136.136536 169.867218 136.063416 169.455322 C 135.887711 168.13858 133.461533 163.485291 132.40538 162.392853 C 131.511703 161.468506 126.865631 158.974792 126.855484 159.384674 C 126.853455 159.466614 126.147659 159.367126 125.32 159.141602 C 123.954124 158.779694 117.658859 157.270447 115.049965 156.631683 C 114.221298 156.447144 113.019928 156.171326 111.238686 155.758118 C 110.700462 155.621765 109.872795 155.39621 109.376213 155.260895 C 108.837982 155.124542 107.884392 154.93689 107.179634 154.796387 C 106.516487 154.656952 104.942413 154.289856 103.784714 153.933136 C 102.584358 153.616302 101.048889 153.37326 100.34005 153.396729 C 99.672852 153.421204 99.051338 153.282806 98.973145 153.075775 C 98.93557 152.910828 98.771057 152.824738 98.642082 152.985565 Z"/>
    </g>
</svg>
