<?xml version="1.0" encoding="UTF-8"?>
<!-- Generated by Pixelmator Pro 3.2.3 -->
<svg width="500" height="500" viewBox="0 0 500 500" xmlns="http://www.w3.org/2000/svg" xmlns:xlink="http://www.w3.org/1999/xlink">
    <g id="logo-light">
        <path id="Rounded-Rectangle" fill="#e0e0e0" fill-rule="evenodd" stroke="none" d="M 0 377 C -0 444.93103 55.068977 500 123 500 L 377 500 C 444.93103 500 500 444.93103 500 377 L 500 123 C 500 55.06897 444.93103 0 377 0 L 123 0 C 55.068977 0 0 55.06897 0 123 Z"/>
        <path id="Path" fill="#0c0c0c" fill-rule="evenodd" stroke="none" d="M 195.211655 65.902527 C 191.562668 66.47403 190.401642 66.718933 187.540512 67.535309 C 184.223221 68.474121 184.057373 68.514954 179.869324 70.392578 C 176.842331 71.739563 170.746857 75.494781 168.673569 77.249939 C 166.558792 79.045959 164.236725 81.331787 161.831696 83.984955 C 160.463333 85.495209 158.597366 87.536102 157.685135 88.474915 C 156.772873 89.454559 155.072784 91.332184 153.911743 92.638336 C 152.750687 93.985321 151.092072 95.781311 150.304199 96.638519 C 149.474899 97.495697 147.650406 99.536591 146.199112 101.128479 C 144.747803 102.679565 143.296478 104.271484 142.964783 104.638824 C 142.633026 105.006195 141.223221 106.557281 139.854828 108.108368 C 138.486465 109.659454 136.993698 111.332977 136.537567 111.781982 C 132.391006 115.86377 135.583862 123.006927 141.554916 123.006927 C 144.042892 123.006927 145.577103 121.945648 150.884735 116.394379 C 153.704422 113.455505 156.980194 110.108429 158.099792 108.924713 C 159.260818 107.781799 162.992767 103.904083 166.392944 100.352936 C 175.805664 90.597443 177.339905 89.046356 180.283981 86.842194 C 182.440201 85.209473 187.001419 82.597137 188.162491 82.352234 C 188.286865 82.352234 188.660065 82.188934 188.991791 82.066498 C 194.589676 79.821533 204.74881 79.331665 211.383331 80.964386 C 212.171188 81.168488 213.290741 81.413391 213.871277 81.535858 C 216.193375 81.944031 217.188538 82.311401 216.939728 82.678772 C 216.815353 82.882874 216.608032 82.964478 216.483597 82.842041 C 216.359222 82.760406 215.778717 82.842041 215.156708 83.086945 C 214.576187 83.291016 213.788345 83.53595 213.415146 83.617554 C 211.549179 83.984955 205.57811 86.638092 201.846176 88.76062 C 200.519287 89.495361 192.72374 94.964966 191.811478 95.822144 C 191.39682 96.189514 190.899216 96.47525 190.650406 96.47525 C 190.443085 96.47525 190.235764 96.638519 190.235764 96.801788 C 190.235764 96.965057 189.738174 97.414063 189.116196 97.781403 C 188.452744 98.148773 187.581955 98.761047 187.125854 99.087585 C 182.979263 102.271393 178.542419 105.45517 178.210693 105.45517 C 178.04483 105.45517 177.796036 105.618469 177.713104 105.781738 C 177.671631 105.985809 176.178864 107.128723 174.478775 108.353271 C 172.778656 109.536987 171.161514 110.720703 170.91272 110.965637 C 170.66391 111.169708 170.041931 111.659515 169.502869 111.986053 C 168.549164 112.63916 160.877991 118.231201 160.17308 118.802673 C 159.965759 119.006744 158.846161 119.782288 157.685135 120.557831 C 155.653305 121.986481 154.741058 122.680389 153.372681 123.823273 C 152.336029 124.68045 151.46524 128.27243 151.879929 129.782715 C 152.08725 130.43576 152.211655 131.088867 152.170181 131.252167 C 152.004318 132.027679 155.487427 134.844116 157.146072 135.293121 C 158.846161 135.782928 159.302292 135.823761 161.126785 135.701324 C 161.748779 135.660461 167.719864 131.741943 170.332184 129.660248 C 170.66391 129.415314 171.907898 128.476532 173.110413 127.619354 C 174.271454 126.762146 175.68129 125.741699 176.220337 125.374359 C 176.759399 125.007019 178.583862 123.660004 180.283981 122.435486 C 184.0159 119.741455 185.964798 118.312866 188.162491 116.680145 C 189.074753 115.986237 190.733368 114.761688 191.852951 113.90451 C 192.972519 113.088165 194.092072 112.394257 194.340881 112.394257 C 194.589676 112.394257 194.797012 112.230957 194.797012 112.026886 C 194.797012 111.863617 195.543396 111.210541 196.455627 110.598236 C 197.367889 109.985992 198.445999 109.251251 198.860641 108.924713 C 200.851013 107.25116 210.512543 100.475403 211.507721 100.06723 C 212.1297 99.781494 212.627289 99.414124 212.627289 99.250854 C 212.627289 99.046783 212.751709 98.965118 212.959045 99.005951 C 213.124893 99.046783 213.829819 98.80188 214.493256 98.434479 C 216.193375 97.577332 220.71315 96.026245 222.330276 95.781311 C 223.035217 95.658875 224.445053 95.454773 225.398773 95.250702 C 227.969635 94.801697 234.313904 95.087433 237.50679 95.822144 C 241.819229 96.801788 245.053558 98.067139 256.373718 103.006104 C 257.28595 103.414307 259.898315 104.516388 262.178925 105.45517 C 266.532837 107.25116 267.071899 107.496094 271.716064 109.536987 C 273.333221 110.271698 274.825989 110.883972 275.033325 110.924774 C 275.282104 110.965637 276.194366 111.373779 277.106628 111.781982 C 278.01886 112.190155 278.848175 112.557526 278.972565 112.598328 C 279.096985 112.63916 279.760406 112.884064 280.423859 113.210602 C 283.077667 114.353516 285.15097 115.210693 289.131683 116.884216 C 291.412323 117.823029 294.107574 118.965942 295.144226 119.414948 C 296.180878 119.863953 297.590729 120.476196 298.25415 120.761932 C 298.959076 121.047638 300.617706 121.782379 301.986084 122.394623 C 303.354462 123.006927 304.681366 123.537567 304.888702 123.578369 C 305.137482 123.619171 305.883881 123.986542 306.588776 124.353912 C 307.293701 124.721252 307.998627 124.884552 308.16449 124.762085 C 308.288879 124.598816 308.413269 124.68045 308.413269 124.925354 C 308.413269 125.129456 308.662079 125.333557 308.952332 125.333557 C 309.201141 125.333557 311.108551 126.1091 313.098938 127.047882 C 315.130737 127.945892 316.872314 128.721436 316.996704 128.721436 C 317.079651 128.721436 317.950439 129.047974 318.904144 129.496979 C 319.857849 129.905151 324.004425 131.660309 328.109528 133.415497 C 332.214661 135.129852 336.568573 137.007477 337.771057 137.538116 C 338.973572 138.068756 340.051666 138.517731 340.134613 138.517731 C 340.21756 138.517731 342.622559 139.497375 345.400787 140.721924 C 353.030487 144.028168 353.776855 144.354706 354.274445 144.43634 C 355.10379 144.640442 362.484711 148.354858 362.733459 148.681396 C 362.85788 148.885498 363.562775 149.334503 364.309174 149.701843 C 366.216583 150.681488 372.602295 157.00827 374.385345 159.743073 C 376.914734 163.579987 378.988068 168.437317 379.485626 171.743561 C 379.65152 172.600739 379.817383 173.417114 379.900269 173.580383 C 380.066193 173.825287 380.522308 177.2948 380.771057 180.070435 C 380.854004 180.805145 380.978455 182.152161 381.144287 183.131775 C 381.268677 184.070587 381.476044 185.948242 381.641846 187.295227 C 381.766266 188.642212 381.973602 190.070862 382.015076 190.438202 C 382.097961 190.805542 382.305359 192.397461 382.429718 193.907715 C 382.595581 195.417999 382.802917 197.213989 382.885803 197.907898 C 383.010223 198.560974 383.176147 199.948761 383.259033 200.969208 C 383.383423 201.989685 383.549316 203.459137 383.673706 204.23468 C 383.798065 205.010223 384.005432 206.847015 384.129822 208.316467 C 384.378632 210.806366 384.585938 212.194183 384.710327 212.194183 C 384.710327 212.194183 384.834747 213.296265 384.917694 214.64325 C 385.083496 216.929077 385.207947 218.357697 385.747009 222.276215 C 386.203156 225.664124 386.368927 227.011078 386.576324 229.337738 C 386.742188 230.684692 386.90802 232.235779 386.990967 232.80722 C 387.15683 233.950134 387.612946 237.664612 387.820282 239.542206 C 387.861755 240.195282 388.027618 241.623901 388.193451 242.685181 C 388.691071 246.562912 388.939819 248.563004 389.105713 250.358963 C 389.18866 251.379425 389.354462 253.012131 389.520386 254.032578 C 389.644806 255.05304 389.810608 256.522491 389.893555 257.298035 C 389.976501 258.073578 390.183838 259.461365 390.308197 260.359375 C 390.391174 261.257385 390.59848 263.012543 390.72287 264.237091 C 390.84729 265.461609 391.054626 267.012695 391.137512 267.706604 C 391.303406 268.808716 391.676605 272.074158 391.966827 274.849731 C 392.049774 275.421204 392.132721 275.870178 392.174194 275.870178 C 392.215668 275.870178 392.298584 276.768188 392.38147 277.911102 C 392.464417 279.013184 392.630341 280.686707 392.7547 281.584717 C 392.837616 282.482727 393.044983 284.237885 393.210846 285.462402 C 393.335205 286.686951 393.542603 288.360474 393.625488 289.136047 C 394.869446 298.034363 394.620636 303.463135 392.713226 309.340942 C 392.38147 310.443024 391.925415 311.545105 391.759552 311.789978 C 391.552155 311.99411 391.386383 312.320648 391.386383 312.524719 C 391.303406 313.25946 389.022766 317.259613 387.488586 319.34137 C 385.332367 322.23941 380.522308 326.892639 377.868469 328.729462 C 376.748901 329.504974 375.629303 330.280548 375.380554 330.443787 C 375.173187 330.647919 373.680481 331.75 372.063263 332.892944 C 370.487549 334.07663 368.994781 335.17868 368.746002 335.34198 C 368.414276 335.627686 362.194427 340.117706 358.379547 342.811707 C 357.757599 343.260681 357.0112 343.872925 356.720917 344.117828 C 356.389221 344.403564 355.974548 344.648438 355.767181 344.648438 C 355.518433 344.648438 355.269623 344.770966 355.186737 344.975006 C 355.145264 345.138245 353.652466 346.281189 351.952362 347.505737 C 350.252289 348.730225 348.676575 349.873169 348.427765 350.077271 C 347.017944 351.13855 344.861725 352.689636 344.073853 353.220276 C 343.576294 353.546753 341.088348 355.342773 338.558899 357.220398 C 335.988037 359.098022 333.500092 360.934845 332.961029 361.302185 C 332.421967 361.669556 330.597473 363.016602 328.8974 364.241089 C 327.238739 365.465637 324.419067 367.506531 322.677521 368.731049 C 320.935944 369.955597 319.277313 371.180115 319.028503 371.384277 C 318.779724 371.62912 317.660156 372.445496 316.499115 373.221008 C 315.379517 373.996582 314.177032 374.853729 313.803833 375.139465 C 312.642792 376.078308 310.19632 377.9151 309.242584 378.527344 C 307.708374 379.547791 304.515503 381.915283 303.934998 382.486755 C 303.644714 382.7724 303.271515 383.017365 303.105652 383.017365 C 302.856873 383.017365 301.944611 383.67041 299.829865 385.466431 C 299.539581 385.670502 299.166412 385.874573 298.917603 385.874573 C 298.710297 385.874573 298.461487 385.997101 298.37854 386.160339 C 298.25415 386.486908 295.517426 388.609436 293.485596 389.95639 C 292.366028 390.731934 288.509705 393.507568 287.680389 394.160645 C 283.326477 397.589386 276.152893 402.242615 273.167358 403.548767 C 270.596466 404.691711 266.449921 405.91626 265.869385 405.712158 C 265.579132 405.589691 265.288879 405.712158 265.205933 405.957062 C 265.081543 406.242798 263.174103 406.446838 259.649506 406.487671 C 255.37854 406.528503 253.595505 406.365265 250.775818 405.671326 C 246.546326 404.610016 242.068008 403.018127 241.321625 402.32428 C 241.031372 402.038513 240.492325 401.79361 240.202042 401.79361 C 239.870331 401.79361 238.626343 401.344604 237.423843 400.813995 C 231.411301 398.079193 222.744934 394.364777 222.288834 394.323975 C 221.998581 394.323975 221.749786 394.119843 221.749786 393.915741 C 221.749786 393.670837 221.625381 393.589172 221.500977 393.752502 C 221.376602 393.874939 220.588715 393.630005 219.759415 393.221893 C 218.888626 392.81369 215.612839 391.344238 212.419952 389.95639 C 209.227097 388.609436 206.158615 387.221588 205.57811 386.935852 C 204.997604 386.609314 204.417084 386.323578 204.251205 386.282776 C 203.587738 386.201172 200.477844 384.89502 196.04097 382.894928 C 194.797012 382.323486 190.691895 380.568237 186.918533 378.935547 C 183.145111 377.343628 179.537598 375.792603 178.832672 375.466003 C 176.095947 374.282318 173.359192 373.098602 172.198151 372.608795 C 171.534698 372.282227 167.678375 370.649475 163.697662 368.935181 C 159.716949 367.179993 155.694763 365.465637 154.782532 365.057434 C 153.87027 364.649292 150.884735 363.383881 148.14798 362.200195 C 145.411255 361.057312 142.425705 359.751099 141.513474 359.342926 C 140.601242 358.934784 138.445007 358.036774 136.744888 357.302002 C 135.0448 356.567291 132.473923 355.46521 131.022614 354.812164 C 129.57132 354.159058 128.244415 353.628418 128.078552 353.628418 C 127.912682 353.628418 126.502838 352.852905 124.927147 351.954895 C 119.163406 348.526184 114.72657 343.668854 111.948357 337.791077 C 111.326363 336.525726 110.828781 335.382813 110.787308 335.260315 C 110.787308 335.137878 110.662918 334.770508 110.497055 334.444 C 110.082397 333.382751 109.37748 330.933655 109.170143 329.913147 C 109.045753 329.382568 108.796959 327.99469 108.589622 326.892639 C 108.340836 325.749756 108.050568 323.749634 107.926178 322.402679 C 107.677376 319.831177 107.594452 318.933136 106.889526 313.218658 C 106.640739 311.300171 106.391937 309.014374 106.267532 308.116394 C 106.184608 307.218384 105.97728 305.54483 105.811417 304.44278 C 105.645554 303.299866 105.479691 301.748779 105.438225 300.973236 C 105.355301 300.197723 105.272362 299.544617 105.230904 299.544617 C 105.147964 299.544617 104.733307 294.973022 104.650368 293.136169 C 104.650368 292.279022 104.525978 291.585083 104.401581 291.585083 C 104.277191 291.585083 104.152786 291.258606 104.152786 290.850403 C 104.111313 289.258484 103.323471 281.99292 103.157608 281.99292 C 103.157608 281.99292 103.033203 281.054077 102.950279 279.951996 C 102.867355 278.809113 102.701485 277.176392 102.577087 276.278381 C 102.494148 275.380371 102.16243 272.84967 101.913628 270.604675 C 101.291649 265.461609 101.291649 265.380005 100.420868 263.747284 C 98.098778 259.298096 92.003304 258.726654 88.934837 262.686005 C 87.981125 263.86972 86.820091 267.216797 87.234741 267.584167 C 87.276207 267.665771 87.44207 268.931152 87.607933 270.359772 C 87.732338 271.829224 87.898201 273.543579 88.022591 274.237488 C 88.10553 274.890564 88.312851 276.360016 88.437256 277.50293 C 88.810448 281.339783 89.225098 284.727692 89.681221 288.319641 C 90.05442 291.095276 90.303215 293.217865 90.510536 295.46283 C 90.593475 296.564941 90.800804 298.238403 90.925194 299.136414 C 91.008133 300.034485 91.215462 301.299805 91.298386 301.912048 C 91.505722 303.626465 90.925194 302.687622 90.303215 300.360962 C 90.012947 299.218079 89.639755 298.115997 89.515366 297.911926 C 89.390968 297.666992 89.266563 297.217957 89.18364 296.891479 C 89.142166 296.564941 88.146988 293.258667 86.985954 289.544189 C 85.824905 285.829773 84.788254 282.52356 84.70533 282.19696 C 84.622391 281.870422 84.000412 279.747925 83.254028 277.50293 C 82.54911 275.257935 81.927116 273.094604 81.802727 272.686401 C 81.636864 271.95166 79.895294 266.318817 78.858658 263.012543 C 77.822014 259.869537 76.951225 258.604187 75.126732 257.706177 C 73.094917 256.644928 71.187485 256.563293 69.072723 257.461304 C 66.999443 258.359314 65.548134 259.828735 64.967621 261.788025 C 64.51149 263.257446 64.594414 263.86972 65.672523 267.420898 C 66.335983 269.584229 66.875038 271.461853 66.916504 271.58432 C 66.916504 271.706787 67.040901 272.074158 67.165306 272.400696 C 67.579956 273.461945 69.653244 280.278534 69.736176 280.727539 C 69.777641 280.972473 70.026443 281.707153 70.275238 282.401093 C 70.524025 283.054169 71.311882 285.544067 72.058266 287.911499 C 72.763184 290.278931 73.551033 292.646362 73.716896 293.217865 C 73.924225 293.789307 74.46328 295.626068 74.960869 297.299591 C 75.458466 298.973175 75.956039 300.646698 76.080444 300.973206 C 76.246307 301.299805 76.370712 301.708008 76.41217 301.871216 C 76.495094 302.075348 76.536575 302.238586 76.619499 302.279419 C 76.660965 302.361084 76.743904 302.728455 76.826828 303.136627 C 77.034149 304.157043 79.397713 311.789978 80.185562 313.953369 C 80.558754 314.892151 80.89048 315.912628 80.931946 316.198364 C 80.973404 316.443268 81.471001 318.035156 81.96859 319.708679 C 82.507645 321.382233 82.96376 323.014954 83.088165 323.382263 C 83.171104 323.749634 84.083336 326.688599 85.161446 329.953979 C 86.861549 335.17868 88.478722 340.403381 88.810448 341.587158 C 88.851913 341.791199 89.266563 343.097351 89.681221 344.444397 C 90.137344 345.791382 90.427612 347.0159 90.386154 347.179199 C 90.344673 347.383301 90.510536 347.505737 90.759331 347.505737 C 90.966667 347.505737 91.091057 347.669006 90.966667 347.832275 C 90.883728 347.995575 91.13253 349.260925 91.588654 350.567078 C 92.044777 351.914063 92.5009 353.30188 92.583839 353.628418 C 92.666763 353.954956 93.122879 355.46521 93.620468 356.975464 C 94.076599 358.485748 94.491257 359.873596 94.491257 360.036835 C 94.532715 360.240906 94.781517 361.016479 95.113251 361.791992 C 95.444977 362.567566 95.735229 363.588013 95.818153 364.037018 C 95.901093 364.485992 96.108421 365.139099 96.232819 365.465637 C 96.357208 365.792175 96.771881 366.975891 97.145065 368.118774 C 98.886635 373.302643 102.079491 379.058014 105.811417 383.629639 C 109.29454 387.915466 115.638809 393.303528 119.868324 395.630127 C 120.697632 396.119934 122.024544 396.813782 122.770927 397.222015 C 123.890503 397.834229 128.617615 399.875153 129.281036 399.997681 C 129.405472 399.997681 129.778656 400.120087 130.110382 400.242523 C 131.312897 400.691559 136.869293 402.120178 138.61087 402.446716 C 140.559753 402.814087 141.181732 402.977295 142.964783 403.426331 C 145.079529 403.997772 146.033234 404.201904 147.526001 404.446777 C 148.106537 404.569214 149.226089 404.814178 150.013947 405.018219 C 153.787338 405.997864 154.94838 406.28363 156.855804 406.691742 C 159.592545 407.263184 159.965759 407.344849 164.319641 408.365326 C 166.392944 408.814331 168.383316 409.263306 168.797974 409.344971 C 169.212616 409.426605 169.959 409.630676 170.456589 409.793915 C 170.954193 409.957245 171.74202 410.161285 172.198151 410.202087 C 172.654282 410.283722 174.147049 410.610321 175.515411 410.977692 C 176.883774 411.304169 178.666824 411.712372 179.454651 411.834808 C 180.242538 411.957306 181.237701 412.243042 181.652344 412.447083 C 182.025528 412.651215 182.357285 412.773651 182.357285 412.651215 C 182.357285 412.528778 183.228058 412.692017 184.306183 413.018585 C 185.384293 413.345093 186.337967 413.508392 186.420929 413.426697 C 186.545319 413.345093 186.918533 413.426697 187.333176 413.630829 C 187.70636 413.8349 188.660065 414.120667 189.447922 414.243103 C 190.235764 414.36554 191.189499 414.569672 191.562668 414.692139 C 191.935852 414.814545 192.599304 414.977783 193.013962 415.059509 C 193.42865 415.141113 196.16539 415.753387 199.067978 416.447266 C 201.970612 417.141174 204.707336 417.794281 205.080505 417.875916 C 205.45372 417.916748 206.241577 418.120789 206.822083 418.243286 C 209.268585 418.896332 216.690948 420.569885 217.976395 420.773956 C 218.764252 420.896454 219.510605 421.100525 219.676483 421.182159 C 219.925293 421.345459 220.630188 421.508728 223.408401 422.039368 C 223.988922 422.161804 224.818268 422.365906 225.274368 422.488342 C 225.730499 422.651611 226.393921 422.81488 226.725677 422.855682 C 227.38913 422.97818 233.899246 424.488434 235.226135 424.814941 C 236.843338 425.223145 246.421906 427.468109 247.458557 427.672241 C 248.039093 427.794678 249.697708 428.162048 251.190475 428.529388 C 252.641785 428.896759 254.258957 429.26413 254.715088 429.345764 C 255.171219 429.427399 255.544403 429.509033 255.544403 429.549835 C 255.544403 429.590637 255.959045 429.672333 256.456665 429.794769 C 256.954224 429.876404 259.31778 430.407043 261.639893 430.937653 C 276.650482 434.488831 275.98703 434.325562 279.179871 434.774536 C 281.501984 435.101105 290.707367 435.060272 293.27829 434.733704 C 294.190521 434.611267 295.766235 434.325562 296.802856 434.080627 C 297.839508 433.794891 298.959076 433.550018 299.332275 433.468384 C 300.327454 433.22345 303.893524 432.039734 304.888702 431.631531 C 307.832764 430.407043 310.486572 429.059998 310.693909 428.733521 C 310.859741 428.488586 311.150024 428.406921 311.357361 428.529388 C 311.564697 428.692688 311.73053 428.57019 311.73053 428.284485 C 311.73053 427.998749 311.85495 427.917114 311.97934 428.039551 C 312.186676 428.243683 315.462463 426.284424 316.291779 425.468079 C 316.416199 425.345581 317.245483 424.733337 318.157745 424.080261 C 319.982239 422.774048 326.119171 416.733032 331.841461 410.569458 C 333.914734 408.406128 336.734406 405.38562 338.18573 403.916168 C 339.595581 402.487518 340.756622 401.222168 340.756622 401.181366 C 340.756622 401.099731 341.62738 400.160889 342.746948 399.058807 C 344.986115 396.732178 352.781677 388.527771 356.347748 384.690857 C 357.716125 383.262238 359.955261 380.894836 361.406525 379.425354 C 362.816406 377.996704 363.977417 376.731384 363.977417 376.64978 C 363.977417 376.608948 364.765289 375.710938 365.760468 374.731323 C 366.714203 373.751648 369.741211 370.608704 372.477936 367.710571 C 379.070953 360.771545 378.946594 360.894012 383.46637 356.118317 C 385.622589 353.791687 388.649597 350.60791 390.22525 349.015991 C 391.759552 347.464905 393.00351 346.117889 393.00351 346.077087 C 393.00351 345.995483 394.081635 344.852539 395.408478 343.505554 C 396.693909 342.199402 398.767242 339.995178 400.0112 338.689087 C 404.07486 334.362366 410.584991 327.464111 412.699738 325.259918 C 415.270599 322.565979 421.532013 315.95343 423.273529 314.035034 C 426.300507 310.687927 430.115417 304.320343 432.31311 298.891541 C 433.100952 296.891479 434.510742 291.585083 434.801025 289.462585 C 435.132721 286.646179 435.091248 277.543701 434.718079 275.462006 C 434.552246 274.564026 434.34491 273.257843 434.261963 272.604797 C 434.137573 271.910858 433.888763 270.931213 433.681458 270.359772 C 433.474121 269.78833 432.893555 267.951538 432.395996 266.278015 C 431.898407 264.604431 430.944733 261.461487 430.239777 259.338928 C 428.332367 253.379517 428.166473 252.80806 428.083557 252.277435 C 428.042084 251.991684 427.876251 251.542679 427.710327 251.256973 C 427.503052 251.012039 427.461578 250.767166 427.627441 250.767166 C 427.751801 250.767166 427.585968 250.236526 427.212769 249.542618 C 426.881012 248.889511 426.59079 248.195618 426.59079 248.032349 C 426.59079 247.583359 423.397888 237.174774 422.444214 234.439972 C 422.236877 233.86853 421.573425 231.745972 420.99292 229.745911 C 420.37088 227.704987 419.748962 225.623291 419.541565 225.051849 C 419.126923 223.868103 416.92923 216.847443 416.804901 216.357605 C 416.763428 216.194336 416.680481 215.990234 416.639008 215.867798 C 416.597534 215.745331 416.514557 215.541229 416.473145 215.337158 C 416.265808 214.561584 415.187714 211.132904 414.441315 208.928741 C 414.026642 207.581757 413.612 206.275574 413.570526 206.071472 C 413.487579 205.826569 413.11438 204.561218 412.699738 203.214233 C 412.243591 201.867218 411.911896 200.683502 411.870422 200.561066 C 411.828949 200.234528 409.258087 192.152557 407.848267 187.907471 C 407.143341 185.784943 406.562836 183.825714 406.521362 183.621613 C 406.438446 183.376709 405.98233 181.825623 405.484711 180.152069 C 404.945618 178.478546 404.489502 176.886627 404.448029 176.682526 C 404.323639 176.111084 400.881989 165.416779 400.591705 164.641235 C 400.467346 164.314697 400.301483 163.82489 400.218536 163.539154 C 400.052673 162.722778 395.864624 149.375305 395.449951 148.314056 C 395.242676 147.742615 394.993835 146.926239 394.910919 146.477234 C 394.78656 146.028229 394.040161 143.619995 393.252258 141.170929 C 392.422943 138.681 391.759552 136.395203 391.759552 136.027863 C 391.759552 135.660461 391.635132 135.252319 391.469269 135.08902 C 391.261932 134.925781 391.137512 134.640045 391.137512 134.517578 C 391.054626 133.374695 387.115356 124.231476 386.244568 123.211029 C 385.871399 122.762024 384.378632 120.516998 383.59079 119.210846 C 383.341949 118.761871 382.96875 118.312866 382.761475 118.149567 C 382.554108 118.02713 381.807739 117.169922 381.102814 116.271942 C 379.817383 114.639252 376.043976 110.761536 375.753723 110.761536 C 375.670776 110.761536 375.007385 110.271698 374.302399 109.618622 C 373.55603 109.006348 372.768219 108.312439 372.519409 108.108368 C 371.441284 107.210358 369.368011 105.863373 368.994781 105.863373 C 368.787476 105.863373 368.538727 105.700073 368.45575 105.496033 C 368.041107 104.393921 355.684296 99.536591 351.330383 98.761047 C 350.666931 98.679382 349.671753 98.475342 349.174164 98.352875 C 348.635101 98.230408 347.84726 98.026337 347.391113 97.90387 C 345.981293 97.577332 344.737335 97.291595 343.493347 97.046692 C 342.829865 96.965057 342.166443 96.760956 342.00058 96.679321 C 341.834717 96.597687 341.088348 96.393616 340.300476 96.271149 C 338.393066 95.903778 337.646667 95.740509 337.646667 95.658875 C 337.646667 95.618073 337.356384 95.536407 337.024658 95.454773 C 336.692932 95.373169 335.946564 95.209869 335.366058 95.087433 C 334.785522 94.964966 333.873291 94.760864 333.292755 94.638428 C 332.712219 94.475159 331.882904 94.31189 331.426788 94.230255 C 330.390167 94.026154 329.602295 93.862885 326.450928 93.046539 C 325.08252 92.719971 323.340942 92.311798 322.553131 92.189331 C 321.765259 92.066895 321.01889 91.862793 320.853027 91.781189 C 320.728638 91.699554 320.148102 91.536255 319.567566 91.413788 C 317.32843 90.964813 315.877136 90.638245 313.720917 90.107635 C 313.51358 90.066803 313.306244 89.985168 313.181854 89.944366 C 312.642792 89.699463 308.703522 88.964722 308.330353 89.046356 C 308.123016 89.087189 307.998627 88.92392 307.998627 88.679016 C 307.998627 88.474915 307.79129 88.39328 307.583984 88.515717 C 307.335175 88.638184 306.547302 88.597382 305.800934 88.352478 C 304.681366 87.985077 300.53479 86.96463 298.088287 86.474823 C 297.715088 86.393188 295.019806 85.740112 292.034302 85.046204 C 289.09021 84.352295 286.270538 83.699219 285.814423 83.617554 C 285.358307 83.53595 284.155792 83.250214 283.119141 82.964478 C 282.08252 82.719574 280.921448 82.515472 280.548279 82.515472 C 280.133606 82.515472 279.80188 82.352234 279.80188 82.148132 C 279.80188 81.903229 279.594543 81.862396 279.387207 81.984863 C 279.138428 82.148132 278.599365 82.10733 278.226196 81.944031 C 277.438324 81.617493 276.774872 81.454224 275.240631 81.168488 C 274.660126 81.086884 271.425781 80.352142 267.984131 79.535797 C 260.727631 77.78064 260.561768 77.739807 259.608032 77.535706 C 259.19339 77.454071 257.078644 76.964264 254.922409 76.433624 C 252.76619 75.902985 250.817291 75.535614 250.651443 75.576477 C 250.485565 75.617279 249.987991 75.494781 249.614792 75.29068 C 249.241577 75.086609 248.370804 74.841705 247.665894 74.719269 C 245.965805 74.433533 240.865494 73.290649 237.092133 72.311005 C 235.392014 71.862 233.608994 71.453857 233.152863 71.372162 C 232.696747 71.33136 231.494247 71.045624 230.457596 70.80072 C 229.420929 70.555847 228.135498 70.229279 227.554993 70.106842 C 226.974487 69.984344 225.025589 69.5354 223.201065 69.086395 C 221.376602 68.63739 219.427704 68.188385 218.847168 68.10675 C 218.266647 68.025116 216.77388 67.698547 215.529922 67.331238 C 213.249298 66.759735 211.880936 66.47403 207.651413 65.861725 C 204.914658 65.453583 197.824005 65.494415 195.211655 65.902527 Z M 275.655304 95.291504 C 276.443146 95.373169 277.189545 95.577271 277.313934 95.699707 C 277.438324 95.862976 278.184692 96.026276 278.972565 96.10788 C 279.760406 96.189514 280.631195 96.311951 280.838531 96.434418 C 281.087311 96.556885 281.46051 96.679321 281.667847 96.720154 C 282.041046 96.801788 284.072845 97.209961 284.985107 97.414032 C 285.233887 97.495697 285.607086 97.618164 285.814423 97.740601 C 286.063202 97.90387 286.560822 97.944702 286.975464 97.90387 C 287.348633 97.822235 287.680359 97.944702 287.680359 98.148804 C 287.680359 98.393677 287.804779 98.475342 288.012085 98.352875 C 288.177979 98.27124 289.795135 98.516144 291.619629 98.965118 C 293.444122 99.373322 295.310059 99.822327 295.766205 99.944763 C 296.222321 100.026398 297.051636 100.230499 297.632172 100.352936 C 298.212677 100.475403 299.415192 100.761139 300.327454 100.96521 C 301.239685 101.169312 303.105652 101.577484 304.515503 101.944855 C 307.376617 102.638763 309.159668 103.046936 310.071899 103.169403 C 310.445099 103.210205 310.942688 103.414307 311.232941 103.577545 C 311.523224 103.740845 311.896393 103.822479 312.020782 103.700012 C 312.145203 103.577545 312.684235 103.618378 313.223297 103.822479 C 314.218475 104.18985 315.089264 104.434753 317.45282 104.842926 C 318.074799 104.965393 319.028503 105.169464 319.609039 105.332733 C 320.189545 105.4552 320.852997 105.618469 321.060333 105.700073 C 321.765259 105.863373 323.921478 106.312378 324.792267 106.475647 C 325.248383 106.598083 326.450897 106.843018 327.487549 107.087921 C 328.52417 107.373627 329.726685 107.659363 330.1828 107.781799 C 330.638916 107.863464 331.385315 108.026733 331.841431 108.108368 C 332.297577 108.190002 333.87326 108.557373 335.366028 108.924713 C 336.858795 109.292084 338.517426 109.659454 339.056488 109.781891 C 339.595551 109.904327 341.171234 110.271698 342.581116 110.598267 C 347.432587 111.74118 349.547333 112.190186 350.003448 112.067719 C 350.169342 112.026886 350.293732 112.149323 350.293732 112.312622 C 350.293732 112.475861 350.625458 112.63916 351.0401 112.679993 C 353.154846 112.843262 361.074829 115.8638 361.904144 116.843414 C 362.028534 116.965851 363.148102 117.782227 364.433533 118.639404 C 369.782623 122.14975 375.131744 129.33371 377.080658 135.578857 C 377.4953 136.844208 378.034332 138.027954 378.241669 138.191193 C 378.490479 138.354462 378.573425 138.517761 378.407501 138.517761 C 378.241669 138.517761 378.531952 139.701477 379.070953 141.170929 C 379.610046 142.64035 379.941742 143.824097 379.858856 143.824097 C 379.734436 143.824097 378.697784 142.885254 377.536713 141.742371 C 376.334229 140.558624 374.717041 139.170837 373.92923 138.558563 C 373.141388 137.987122 372.394989 137.374847 372.270599 137.252411 C 372.146179 137.129944 371.482758 136.721771 370.777832 136.354401 C 370.072906 135.98703 369.285065 135.415588 368.994781 135.08902 C 368.704498 134.72168 368.289856 134.55838 368.08252 134.680847 C 367.875214 134.803314 367.709351 134.680847 367.709351 134.476776 C 367.709351 134.231842 367.584991 134.068604 367.419067 134.109406 C 367.211761 134.150238 366.340973 133.782837 365.387268 133.333862 C 364.475006 132.844055 362.028534 131.782776 359.996735 130.925598 C 357.964874 130.109253 355.559906 129.129639 354.647614 128.721436 C 349.713196 126.598907 347.847229 125.864166 347.432587 125.864166 C 347.183807 125.864166 346.97644 125.700897 346.97644 125.455994 C 346.97644 125.251923 346.686188 125.170288 346.354462 125.292725 C 346.022766 125.455994 345.732483 125.333557 345.732483 125.088623 C 345.732483 124.843719 345.483673 124.639648 345.19342 124.639648 C 344.654358 124.639648 340.217529 122.843628 333.209808 119.782288 C 332.131683 119.29248 331.136536 118.92514 331.053589 118.92514 C 330.970642 118.92514 330.1828 118.598572 329.312042 118.231201 C 328.39978 117.863861 327.611908 117.537323 327.487549 117.49649 C 326.824097 117.292389 322.387238 115.414795 320.687164 114.598419 C 320.023712 114.271881 319.360229 114.026947 319.194397 114.026947 C 319.028503 114.026947 317.825989 113.577972 316.540558 113.0065 C 315.255127 112.435059 314.135559 111.986053 314.011169 111.986053 C 313.886749 111.986053 313.181824 111.700348 312.435455 111.292175 C 311.73053 110.924774 310.942688 110.557434 310.693909 110.516632 C 310.362183 110.434998 307.832764 109.414551 300.327454 106.271576 C 299.871307 106.108276 298.62735 105.577637 297.549255 105.08783 C 296.47113 104.598022 295.475952 104.230652 295.351563 104.230652 C 295.268616 104.230652 294.190521 103.781647 292.988007 103.251007 C 291.785492 102.720398 289.58783 101.781586 288.095032 101.169312 C 286.602264 100.59787 284.611908 99.740692 283.658203 99.291687 C 282.663025 98.883484 281.5849 98.516144 281.253174 98.516144 C 280.921448 98.516144 280.631195 98.312042 280.631195 98.107971 C 280.631195 97.863037 280.299469 97.699799 279.884827 97.699799 C 279.470123 97.699799 278.931091 97.495697 278.640839 97.209961 C 278.350586 96.924255 278.14325 96.84259 278.14325 97.005859 C 278.14325 97.169159 277.728607 97.087524 277.230988 96.801788 C 276.691925 96.516052 276.152893 96.352783 275.98703 96.393616 C 275.779694 96.434418 275.655304 96.271149 275.655304 96.067078 C 275.655304 95.822144 275.530884 95.699707 275.365051 95.740509 C 274.743042 95.903778 273.167358 95.209869 273.167358 94.760864 C 273.167358 94.475189 273.333191 94.475189 273.70639 94.760864 C 273.9552 94.964966 274.867432 95.250702 275.655304 95.291504 Z M 398.808655 205.051025 C 398.601349 204.479584 398.020844 202.642761 397.564697 200.969208 C 397.067108 199.295685 396.445129 197.703796 396.237793 197.499725 C 395.906097 197.213989 395.864624 197.254791 396.030457 197.540558 C 396.32074 198.030365 396.693909 200.6427 396.942719 204.030579 C 397.025665 205.13266 397.150055 206.071472 397.191528 206.071472 C 397.191528 206.071472 397.274414 206.520477 397.357391 207.091919 C 397.564697 209.010376 397.97937 212.602356 398.186676 214.031006 C 398.311127 214.806549 398.476959 216.194336 398.559875 217.092316 C 398.684296 217.990326 398.891632 219.908783 399.015991 221.378235 C 399.181885 222.847687 399.389221 224.562012 399.513611 225.25592 C 399.596558 225.908997 399.720917 227.174377 399.76239 227.990723 C 399.803864 228.847931 399.928253 229.541809 400.052673 229.541809 C 400.177063 229.541809 400.301422 230.317352 400.342896 231.296997 C 400.425873 233.786896 400.840515 237.705414 401.172211 239.134033 C 401.338135 239.78714 401.421021 240.481018 401.379547 240.644287 C 401.338135 240.807587 401.503967 242.358673 401.711304 244.113815 C 401.960114 245.869003 402.250336 248.318069 402.374756 249.542618 C 402.499115 250.767166 402.664978 252.236618 402.747925 252.80806 C 403.204071 255.746948 403.411377 257.338867 403.57724 259.54303 C 403.660187 260.890015 403.784576 261.992096 403.784576 261.992096 C 403.908997 261.992096 404.157806 263.747284 404.406555 265.869812 C 404.530975 267.09436 404.696838 268.767883 404.779785 269.543427 C 404.904144 270.31897 405.070007 271.992493 405.194427 273.217041 C 405.318817 274.441589 405.526123 276.155945 405.650574 276.97229 C 405.816406 278.40094 406.023743 280.03363 406.479858 284.033813 C 406.604248 284.931793 406.770111 286.197144 406.853058 286.891052 C 407.309174 290.07489 407.682343 294.973022 407.682343 298.320099 C 407.682343 302.891693 407.350647 306.0755 406.479858 309.953247 C 406.313965 310.524658 406.148102 311.422668 406.023743 311.99411 C 406.005859 312.092621 405.986786 312.185333 405.969391 312.269653 C 405.918396 312.517395 405.882507 312.691833 405.936859 312.725372 C 406.067169 312.805756 406.715912 312.076355 408.919312 309.598999 C 409.116302 309.377502 409.325714 309.141998 409.548309 308.891937 C 412.492401 305.504028 413.943695 303.748871 414.5242 302.64679 C 414.855957 302.075348 415.229126 301.503906 415.436462 301.381409 C 415.768219 301.136536 418.753754 295.421997 418.919586 294.646484 C 418.96106 294.442383 419.334259 293.177063 419.707428 291.87085 C 420.12207 290.564697 420.536743 288.850281 420.661163 287.993164 C 420.992859 286.156342 420.951447 277.8703 420.661163 276.482483 C 420.536743 275.911011 420.329407 275.013031 420.205048 274.441589 C 420.080658 273.870117 419.873322 273.053772 419.790375 272.604797 C 419.666016 272.155762 418.46347 268.196411 417.095062 263.828918 C 415.685272 259.461365 414.482788 255.461227 414.399811 254.971405 C 414.275452 254.481583 414.026642 253.746887 413.819305 253.338699 C 413.570526 252.930511 413.404663 252.481506 413.36319 252.277435 C 413.321716 251.991714 413.280243 251.82843 413.11438 251.256973 C 413.072906 251.093704 412.907074 250.277344 412.741211 249.420166 C 412.533875 248.603821 412.285065 247.909897 412.119232 247.909897 C 411.953339 247.909897 411.828949 247.583359 411.787476 247.175171 C 411.746002 246.766983 411.331329 245.175079 410.83374 243.583191 C 409.133636 238.236053 407.640869 233.419525 406.687195 230.358185 C 406.189606 228.684631 405.6091 226.847839 405.443237 226.276367 C 405.23587 225.704926 404.489502 223.337463 403.784576 220.970062 C 403.038208 218.6026 402.125946 215.663696 401.711304 214.439148 C 401.296631 213.21463 400.591705 210.806366 400.094116 209.132843 C 399.555084 207.45932 399.015991 205.622467 398.808655 205.051025 Z M 367.377655 353.30188 C 367.128845 353.587585 364.39212 356.404053 361.323639 359.547058 C 358.213684 362.690033 355.684296 365.261536 355.684296 365.302368 C 355.684296 365.302368 353.984192 367.057526 351.910889 369.180054 C 342.705505 378.568176 337.895477 383.466339 329.768158 391.793213 C 315.586884 406.365265 307.335175 414.447174 306.588776 414.447174 C 306.215607 414.447174 305.925323 414.610504 305.925323 414.814545 C 305.925323 415.671722 295.932068 420.039246 295.102783 419.549438 C 294.895447 419.386169 294.729553 419.467804 294.729553 419.671875 C 294.729553 419.876007 294.480804 420.039246 294.231995 420.039246 C 293.941742 420.080048 292.490417 420.243286 290.99765 420.48822 C 286.726685 421.100525 277.64566 420.610718 277.065125 419.712677 C 276.940735 419.508636 276.691956 419.427002 276.484619 419.549438 C 276.277313 419.671875 274.743073 419.467804 273.084412 419.100433 L 270.098907 418.406525 L 274.07962 417.100342 C 278.765259 415.549255 283.285034 413.508362 286.685211 411.385803 C 289.670746 409.549042 301.447021 400.977234 301.861694 400.405792 C 302.069031 400.120087 302.19342 400.120087 302.19342 400.36499 C 302.19342 400.609894 302.31781 400.609894 302.525146 400.324158 C 302.69101 400.079285 304.971619 398.364868 307.583984 396.446503 C 310.19632 394.568848 312.642792 392.81369 312.974518 392.527954 C 313.306244 392.28302 315.172211 390.895233 317.121094 389.507385 C 319.069977 388.119629 320.728638 386.813416 320.770081 386.609314 C 320.853027 386.446014 321.184753 386.282776 321.516479 386.282776 C 321.848206 386.282776 322.096985 386.078735 322.096985 385.874603 C 322.096985 385.62973 322.304321 385.466461 322.594604 385.466461 C 322.843384 385.466461 323.340973 385.180695 323.714172 384.854126 C 324.460541 384.119446 328.151001 381.425476 331.178009 379.34375 C 332.33905 378.568176 333.251282 377.792664 333.292755 377.588531 C 333.292755 377.425293 333.500092 377.302856 333.790375 377.302856 C 334.039154 377.302856 334.536713 377.01709 334.909912 376.64978 C 335.283142 376.323212 337.273468 374.853729 339.305298 373.384277 C 341.378601 371.914856 343.493347 370.36377 344.073853 369.955597 C 344.654388 369.547424 346.437408 368.241211 348.013123 367.098328 C 349.63028 365.955444 350.998657 364.812531 351.0401 364.608398 C 351.123047 364.404358 351.371826 364.241089 351.620636 364.241089 C 351.827972 364.241089 353.07193 363.424683 354.357361 362.48587 C 355.684296 361.506226 358.586914 359.342926 360.867523 357.669403 C 367.916687 352.526306 368.20697 352.322266 367.377655 353.30188 Z M 128.161469 369.180115 C 122.314796 366.935059 117.546227 364.118652 112.280067 359.791901 C 111.036095 358.771484 109.501869 357.383667 108.879875 356.689819 C 108.216431 356.036682 107.718842 355.587677 107.718842 355.750977 C 107.718842 356.89386 112.197144 368.853516 112.777664 369.180084 C 112.984993 369.302551 113.192314 369.588257 113.192314 369.792358 C 113.233795 370.486237 114.063103 371.996521 114.436295 371.996521 C 114.602158 371.996521 114.768021 372.282227 114.768021 372.608795 C 114.768021 372.935364 114.933884 373.221008 115.099747 373.221008 C 115.307076 373.221008 115.721733 373.670044 116.011993 374.241516 C 117.255974 376.527344 121.98307 380.649933 126.378441 383.303131 C 127.871216 384.20108 129.19812 384.935822 129.405441 384.976654 C 129.57132 385.017426 130.400635 385.343994 131.271408 385.711365 C 132.100723 386.037903 133.386154 386.446106 134.049622 386.568542 C 134.754517 386.690948 135.583862 386.935913 135.957031 387.139954 C 136.57901 387.466522 137.035141 387.548187 139.979233 388.160431 C 140.601212 388.282837 142.218369 388.650238 143.586731 389.017609 C 144.955124 389.344147 146.447891 389.711517 146.862549 389.793121 C 147.277206 389.874756 148.230911 390.11969 148.935837 390.323761 C 149.640747 390.568695 150.677414 390.813599 151.257919 390.936035 C 151.83844 391.01767 153.123886 391.303406 154.160522 391.548279 C 155.197174 391.834045 156.399673 392.119781 156.855804 392.201416 C 157.31192 392.323853 158.804688 392.691254 160.17305 393.058594 C 161.541443 393.385101 163.03421 393.752502 163.490341 393.834106 C 163.946442 393.915741 168.134506 394.895416 172.820129 396.079102 C 177.505753 397.221985 181.61087 398.242462 181.942596 398.324097 C 182.274323 398.405762 183.518295 398.691437 184.637878 398.936371 C 185.798935 399.222107 187.084381 399.507813 187.540482 399.548645 C 187.996613 399.63028 188.369812 399.711914 188.369812 399.752686 C 188.369812 399.83432 189.572296 400.120087 190.650406 400.324158 C 190.982147 400.405792 191.562668 400.569092 191.894409 400.691528 C 192.516388 400.895599 194.133545 401.303802 196.04097 401.671173 C 197.782532 401.997742 198.321594 402.120178 198.321594 402.201782 C 198.321594 402.283447 199.772903 402.610016 200.892471 402.814087 C 201.348602 402.854889 202.385254 403.140656 203.173096 403.344696 C 206.158615 404.283508 213.207825 405.875427 213.373672 405.671387 C 213.498062 405.548889 213.290741 405.467224 212.917572 405.467224 C 212.502914 405.467224 212.212631 405.303955 212.212631 405.099915 C 212.212631 404.895782 211.7565 404.610107 211.175995 404.48761 C 210.056412 404.201904 206.200104 402.569183 204.251205 401.548767 C 203.587738 401.181366 203.090164 401.018127 203.090164 401.140564 C 203.090164 401.222168 201.970581 400.773193 200.602219 400.120087 C 199.233856 399.467041 198.031342 398.936371 197.906937 398.936371 C 197.824005 398.936371 196.745895 398.487366 195.543396 397.956757 C 192.93103 396.813873 187.996613 394.691345 186.255051 393.997406 C 185.591583 393.71167 184.928162 393.507568 184.762283 393.54837 C 184.554947 393.589172 184.430557 393.425934 184.430557 393.140259 C 184.430557 392.895325 184.347626 392.772888 184.181747 392.895325 C 184.057373 393.017731 182.854858 392.609589 181.486496 391.956482 C 180.159576 391.303406 178.915588 390.772797 178.791199 390.772797 C 178.666824 390.772797 177.505753 390.282959 176.220322 389.711517 C 173.690918 388.568634 171.907867 387.874664 171.576172 387.874664 C 171.451767 387.874664 170.829758 387.507324 170.124863 387.099182 C 169.461395 386.690948 168.715012 386.323578 168.466217 386.282776 C 167.844238 386.160339 166.766129 385.711365 162.453674 383.83374 C 160.297455 382.894928 157.975388 381.915283 157.270447 381.588745 C 155.197174 380.731567 153.206818 379.874359 151.46524 379.098846 C 150.553009 378.731476 149.723679 378.364075 149.599304 378.323273 C 148.769958 378.037537 146.613739 377.098755 140.974411 374.608887 C 139.771896 374.078217 138.693787 373.629211 138.61087 373.629211 C 138.403534 373.629211 135.957031 372.567993 132.390976 370.935242 C 131.271408 370.445435 129.363998 369.629028 128.161469 369.180084 Z"/>
        <path id="path1" fill="#0c0c0c" fill-rule="evenodd" stroke="none" d="M 98.140244 153.416321 C 97.97438 153.538757 97.352394 153.742859 96.7304 153.865326 C 93.99366 154.355133 91.173996 156.110291 88.561646 159.008392 C 87.110344 160.600281 85.451714 162.437103 84.829727 163.049377 C 84.166267 163.702454 83.668686 164.314697 83.668686 164.437164 C 83.668686 164.559631 83.171089 165.171906 82.549103 165.78418 C 81.885651 166.396423 80.268486 168.192413 78.941582 169.7435 C 77.573212 171.335388 76.080444 172.96814 75.624321 173.457916 C 72.846107 176.233551 71.104546 178.886719 70.27523 181.621521 C 69.321518 184.846161 69.69471 188.234039 71.850929 195.050629 C 72.887573 198.397705 73.841286 201.459076 73.924225 201.785614 C 74.007156 202.112152 74.090088 202.397858 74.131546 202.397858 C 74.173019 202.397858 74.255951 202.724426 74.338875 203.091766 C 74.421806 203.459167 74.795006 204.76532 75.209656 205.949036 C 75.624321 207.132782 75.914581 208.316467 75.873108 208.602203 C 75.83165 208.847107 75.956039 209.173645 76.204842 209.336914 C 76.412163 209.459381 76.619499 209.949188 76.619499 210.398193 C 76.619499 212.153381 79.148911 217.582153 80.683144 219.13324 C 82.217377 220.684326 84.871185 222.072144 86.861549 222.439484 C 87.44207 222.561951 89.183632 222.929291 90.676407 223.255859 C 92.169167 223.582397 94.740044 224.113037 96.31575 224.439575 C 97.932915 224.766113 99.591545 225.133484 100.047676 225.215118 C 100.503792 225.337585 102.74295 225.78656 105.02356 226.276367 C 107.304184 226.766205 109.543335 227.256012 109.999458 227.378448 C 112.363007 227.990753 116.302261 227.827454 118.417023 227.011108 C 120.614708 226.194763 124.346619 223.010956 127.373627 219.337341 C 127.995621 218.561798 129.446915 216.929077 130.566498 215.745361 C 131.686066 214.602448 132.473923 213.622833 132.349518 213.622833 C 132.225128 213.622833 132.556854 213.21463 133.095901 212.68399 C 133.634964 212.153381 135.169189 210.479828 136.537567 208.928772 C 137.905945 207.377686 139.315765 205.826599 139.68898 205.459229 C 140.684143 204.438782 142.218384 201.459076 142.840363 199.336548 C 143.50383 197.213989 143.172104 193.254669 142.093979 189.86676 C 141.471985 187.866669 140.974411 186.193146 140.974411 186.152313 C 140.932938 186.111511 140.850006 185.784943 140.767075 185.458435 C 140.642685 185.131866 140.352417 184.029785 140.062164 183.009338 C 139.81337 181.988892 139.398712 180.846008 139.191376 180.478607 C 138.984055 180.111267 138.735245 179.213287 138.61087 178.478546 C 138.486465 177.784637 138.196198 176.886627 138.030334 176.519287 C 137.822998 176.151947 137.657135 175.743744 137.657135 175.539642 C 137.657135 175.376373 137.242493 173.988586 136.786362 172.4375 C 136.330246 170.927246 135.874115 169.294495 135.791183 168.886322 C 135.583862 167.580139 133.054443 163.008545 131.976334 161.947266 C 131.064087 161.049286 126.378448 158.681824 126.378448 159.090027 C 126.378448 159.171631 125.673531 159.090027 124.844208 158.885956 C 123.475845 158.559387 117.17305 157.212402 114.560692 156.64093 C 113.731384 156.477661 112.528877 156.232758 110.745842 155.865417 C 110.206787 155.74292 109.377464 155.538849 108.87989 155.416412 C 108.340836 155.293945 107.387108 155.130676 106.682205 155.008209 C 106.018745 154.885773 104.443039 154.559204 103.282005 154.232697 C 102.079491 153.94693 100.545265 153.742859 99.840347 153.783691 C 99.176888 153.824493 98.554893 153.702057 98.47197 153.497925 C 98.430504 153.334686 98.264641 153.253052 98.140244 153.416321 Z"/>
        <path id="path2" fill="#0c0c0c" fill-rule="evenodd" stroke="none" d="M 241.902161 322.892517 C 241.777756 323.055786 240.824051 323.178253 236.884781 323.586426 C 235.765228 323.708893 234.27243 323.912964 233.56752 324.035431 C 232.904068 324.117065 231.577148 324.321167 230.664917 324.484436 C 227.803787 324.892578 226.808609 325.790588 225.067032 329.341736 C 223.242538 333.097015 221.832703 336.158325 220.505783 339.342163 C 219.966736 340.566681 219.38623 341.750427 219.261826 341.995331 C 218.847168 342.52594 219.013031 345.954651 219.469162 346.689392 C 219.63501 347.01593 221.210724 349.424194 222.952286 351.995728 C 224.65239 354.567261 226.020752 356.812256 225.979263 356.975525 C 225.93782 357.179626 226.103668 357.302063 226.311005 357.302063 C 226.559799 357.302063 226.725677 357.506134 226.725677 357.710236 C 226.725677 358.567413 229.752655 361.343018 231.328369 361.955322 C 233.028473 362.649231 235.392014 362.608398 240.824051 361.792053 C 244.597443 361.261414 246.338974 361.016479 248.453751 360.730774 C 249.324539 360.649109 250.568497 360.240967 251.149033 359.914429 C 252.14418 359.342957 253.678421 357.342896 253.927231 356.281616 C 253.968704 356.036713 254.258957 355.302002 254.54921 354.648865 C 254.839462 353.955017 255.088272 353.30188 255.129745 353.097778 C 255.212662 352.93454 255.295593 352.730469 255.337067 352.608002 C 255.378525 352.485535 255.461472 352.281433 255.544403 352.077393 C 255.585876 351.914093 255.751724 351.50592 255.876129 351.179382 C 257.368896 347.628174 259.483643 341.464691 259.483643 340.607483 C 259.483643 338.56662 258.737244 337.056335 255.129745 331.586731 C 251.024628 325.382416 250.236771 324.443604 248.495193 323.504791 C 247.417084 322.93335 242.358261 322.443542 241.902161 322.892517 Z"/>
    </g>
</svg>
