<?xml version="1.0" encoding="UTF-8"?>
<!-- Generated by Pixelmator Pro 3.2.3 -->
<svg width="633" height="633" viewBox="0 0 633 633" xmlns="http://www.w3.org/2000/svg" xmlns:xlink="http://www.w3.org/1999/xlink">
    <g id="logo-dark">
        <path id="Path" fill="#2c2e33" fill-rule="evenodd" stroke="#000000" stroke-linecap="round" stroke-linejoin="round" d="M 151 1 L 482 1 C 564.787231 1 632 68.212769 632 151 L 632 482 C 632 564.787231 564.787231 632 482 632 L 151 632 C 68.212746 632 1 564.787231 1 482 L 1 151 C 1 68.212769 68.212746 1 151 1 Z"/>
        <path id="path1" fill="#ffffff" fill-rule="evenodd" stroke="none" d="M 247.109009 103.377808 C 242.974304 104.037598 241.658722 104.320313 238.416748 105.262817 C 234.657898 106.34668 234.469971 106.393799 229.724457 108.561523 C 226.294525 110.116577 219.387695 114.451965 217.038422 116.478271 C 214.642151 118.551758 212.010986 121.190704 209.285828 124.253754 C 207.735321 125.997345 205.620972 128.353546 204.587311 129.437378 C 203.553619 130.568359 201.627228 132.736053 200.311646 134.244019 C 198.996033 135.799103 197.116638 137.872559 196.223907 138.862183 C 195.28421 139.851776 193.216858 142.207977 191.572388 144.045807 C 189.927887 145.836517 188.283386 147.674347 187.907532 148.09845 C 187.531616 148.522583 185.934143 150.313293 184.383606 152.104004 C 182.833099 153.894714 181.141632 155.826782 180.624786 156.345154 C 175.92627 161.057526 179.544128 169.30423 186.309998 169.30423 C 189.12915 169.30423 190.867584 168.07901 196.881714 161.670135 C 200.076721 158.277222 203.788544 154.413055 205.057159 153.046478 C 206.372742 151.72699 210.60144 147.250214 214.454224 143.150452 C 225.119873 131.887817 226.858337 130.097107 230.194305 127.552429 C 232.637543 125.66748 237.805908 122.65155 239.121521 122.368805 C 239.262451 122.368805 239.685333 122.180298 240.061218 122.03894 C 246.404236 119.447144 257.915649 118.881592 265.433289 120.766602 C 266.326019 121.002197 267.594604 121.284943 268.252411 121.4263 C 270.883606 121.897552 272.01123 122.321655 271.729309 122.745789 C 271.588379 122.981415 271.353455 123.075653 271.212463 122.934296 C 271.071533 122.840027 270.413757 122.934296 269.708954 123.21701 C 269.051147 123.452637 268.158447 123.735382 267.735565 123.82962 C 265.621216 124.253754 258.855347 127.316803 254.626648 129.767242 C 253.123138 130.615479 244.289917 136.930084 243.256226 137.919678 C 242.786377 138.343811 242.222534 138.673676 241.940613 138.673676 C 241.705688 138.673676 241.470764 138.862183 241.470764 139.050659 C 241.470764 139.239166 240.906952 139.757538 240.202179 140.181641 C 239.450409 140.605743 238.463715 141.312622 237.946899 141.689606 C 233.248352 145.365265 228.220917 149.040924 227.845032 149.040924 C 227.657104 149.040924 227.375183 149.229431 227.281219 149.417938 C 227.234222 149.653534 225.542755 150.973022 223.616364 152.386749 C 221.689941 153.753326 219.857544 155.119934 219.575623 155.402679 C 219.293701 155.638275 218.588928 156.203766 217.978119 156.58075 C 216.897461 157.334747 208.20517 163.79071 207.406433 164.45047 C 207.171509 164.686066 205.902893 165.581421 204.587311 166.476776 C 202.285034 168.126129 201.251343 168.927246 199.700836 170.246704 C 198.526184 171.236298 197.53949 175.383209 198.009369 177.126801 C 198.244293 177.880768 198.385254 178.634766 198.338257 178.823273 C 198.15033 179.718597 202.097076 182.970154 203.976501 183.488525 C 205.902893 184.054016 206.419739 184.101135 208.487091 183.959778 C 209.191864 183.912628 215.957764 179.388733 218.917816 176.985413 C 219.293701 176.702667 220.703278 175.618835 222.065857 174.629242 C 223.381439 173.639618 224.978943 172.461517 225.589752 172.037415 C 226.200562 171.613312 228.267883 170.058197 230.194305 168.644501 C 234.422974 165.534302 236.631287 163.884979 239.121521 162.000031 C 240.155212 161.198914 242.034607 159.785187 243.303223 158.795593 C 244.571808 157.853119 245.840393 157.052002 246.122314 157.052002 C 246.404236 157.052002 246.63916 156.863495 246.63916 156.627899 C 246.63916 156.439392 247.484894 155.685425 248.518555 154.978546 C 249.552246 154.271698 250.773865 153.423462 251.243713 153.046478 C 253.499023 151.11438 264.446594 143.291809 265.574249 142.820587 C 266.279022 142.490723 266.842834 142.066589 266.842834 141.878113 C 266.842834 141.642487 266.983826 141.548218 267.21875 141.595367 C 267.406677 141.642487 268.205444 141.359741 268.957184 140.935608 C 270.883606 139.946014 276.005005 138.155304 277.837402 137.872559 C 278.636169 137.731201 280.233673 137.495575 281.314331 137.259949 C 284.227417 136.741577 291.416168 137.071472 295.034058 137.919678 C 299.920532 139.050659 303.585388 140.511505 316.412354 146.213501 C 317.446045 146.684753 320.406128 147.957092 322.990295 149.040924 C 327.923767 151.11438 328.534576 151.397125 333.796936 153.753326 C 335.629364 154.601563 337.320831 155.308411 337.555756 155.35553 C 337.837646 155.402679 338.871338 155.873901 339.905029 156.345154 C 340.938721 156.816376 341.878418 157.240509 342.019348 157.287628 C 342.160339 157.334747 342.912079 157.617493 343.663849 157.994476 C 346.670898 159.313965 349.020172 160.303558 353.530762 162.235626 C 356.11496 163.319489 359.169006 164.638947 360.343628 165.157318 C 361.51828 165.67569 363.115784 166.382538 363.867523 166.712402 C 364.66629 167.042267 366.545685 167.890503 368.096222 168.597351 C 369.646729 169.30423 371.150269 169.91684 371.385193 169.963959 C 371.667084 170.011078 372.512848 170.435211 373.311584 170.859314 C 374.110321 171.283417 374.909088 171.471924 375.097015 171.330566 C 375.237976 171.142059 375.378937 171.236298 375.378937 171.519043 C 375.378937 171.754669 375.660858 171.990295 375.989746 171.990295 C 376.271667 171.990295 378.432983 172.885651 380.688293 173.969482 C 382.99057 175.006226 384.963959 175.901581 385.104889 175.901581 C 385.198883 175.901581 386.185577 176.278564 387.266235 176.796936 C 388.346893 177.268158 393.04541 179.294495 397.69696 181.320831 C 402.348511 183.300018 407.281982 185.467743 408.644531 186.080353 C 410.007111 186.692963 411.228729 187.211304 411.322693 187.211304 C 411.416687 187.211304 414.141815 188.342285 417.289856 189.756012 C 425.93515 193.573059 426.780884 193.950043 427.344696 194.044281 C 428.284424 194.279907 436.647827 198.568176 436.929688 198.94516 C 437.070679 199.180786 437.869385 199.699158 438.715149 200.12326 C 440.876465 201.254242 448.112183 208.558441 450.132568 211.715759 C 452.998657 216.145416 455.347961 221.753143 455.911743 225.57019 C 456.099731 226.559784 456.287659 227.502289 456.381592 227.690765 C 456.56958 227.973511 457.086426 231.979034 457.368286 235.183472 C 457.46228 236.031708 457.603271 237.586792 457.791199 238.717773 C 457.932129 239.801605 458.167114 241.96933 458.35498 243.524414 C 458.495972 245.079498 458.730896 246.728851 458.777893 247.152954 C 458.871826 247.577057 459.106812 249.414886 459.247742 251.158478 C 459.435669 252.902069 459.670593 254.975525 459.764526 255.776642 C 459.905518 256.530609 460.093506 258.132813 460.187439 259.310913 C 460.328369 260.489014 460.516357 262.185486 460.657288 263.080841 C 460.798218 263.976196 461.033203 266.096771 461.174133 267.793243 C 461.456055 270.667786 461.690979 272.27002 461.831909 272.27002 C 461.831909 272.27002 461.9729 273.542358 462.066895 275.097443 C 462.254761 277.736389 462.395752 279.385712 463.006592 283.909607 C 463.523438 287.820923 463.711304 289.375977 463.946289 292.062073 C 464.134216 293.617126 464.322144 295.407837 464.416138 296.067566 C 464.604065 297.387054 465.120911 301.675354 465.355835 303.843018 C 465.402832 304.597015 465.590759 306.246338 465.778687 307.471558 C 466.342529 311.948364 466.62439 314.257446 466.812378 316.330872 C 466.906372 317.508972 467.094238 319.393921 467.282227 320.572021 C 467.423218 321.750122 467.611084 323.446594 467.705078 324.341949 C 467.799072 325.237305 468.033997 326.839508 468.174927 327.876221 C 468.268921 328.912964 468.503845 330.939301 468.644775 332.353027 C 468.785767 333.766724 469.020691 335.557434 469.114624 336.358551 C 469.302612 337.63089 469.725464 341.400818 470.054321 344.605225 C 470.148315 345.264954 470.24231 345.783325 470.289307 345.783325 C 470.336304 345.783325 470.430237 346.820068 470.52417 348.139526 C 470.618164 349.411865 470.806152 351.343933 470.947083 352.380676 C 471.041016 353.417419 471.276001 355.443726 471.463928 356.857452 C 471.604858 358.271179 471.839844 360.203217 471.933777 361.098602 C 473.343323 371.371643 473.061401 377.639069 470.900085 384.424957 C 470.52417 385.697296 470.007385 386.969666 469.819458 387.25235 C 469.584473 387.488007 469.396606 387.86499 469.396606 388.100616 C 469.302612 388.948822 466.718384 393.566986 464.97998 395.970337 C 462.536743 399.316101 457.086426 404.688202 454.079346 406.808807 C 452.81073 407.704132 451.542114 408.599518 451.260254 408.787994 C 451.025269 409.023651 449.333862 410.29599 447.501404 411.615479 C 445.715942 412.982056 444.024475 414.254364 443.742554 414.442902 C 443.366699 414.772736 436.318909 419.956421 431.996216 423.066589 C 431.291504 423.584961 430.44574 424.291779 430.116821 424.574524 C 429.740967 424.904419 429.271118 425.187103 429.036133 425.187103 C 428.754272 425.187103 428.472351 425.328552 428.378418 425.564117 C 428.331421 425.752594 426.639923 427.072113 424.713531 428.48584 C 422.78714 429.899506 421.001678 431.218994 420.719757 431.45462 C 419.122284 432.679871 416.679047 434.470581 415.786316 435.083191 C 415.222504 435.460114 412.403381 437.5336 409.537262 439.701294 C 406.624176 441.868988 403.805054 443.989594 403.194244 444.413666 C 402.583435 444.837799 400.516083 446.392944 398.589691 447.806641 C 396.710266 449.220337 393.515259 451.576538 391.541901 452.990234 C 389.568512 454.403961 387.689087 455.817657 387.407166 456.053345 C 387.125275 456.336029 385.856659 457.278534 384.541077 458.173859 C 383.272461 459.069244 381.909912 460.058807 381.48703 460.388702 C 380.171448 461.472565 377.399323 463.59314 376.318634 464.299957 C 374.5802 465.478058 370.962311 468.211273 370.304535 468.871033 C 369.975616 469.200836 369.552765 469.483643 369.364807 469.483643 C 369.082916 469.483643 368.049225 470.237579 365.652985 472.311066 C 365.324066 472.546661 364.901215 472.782257 364.619293 472.782257 C 364.384369 472.782257 364.102448 472.923706 364.008484 473.112183 C 363.867523 473.489197 360.76651 475.939606 358.464233 477.494659 C 357.195618 478.390045 352.825989 481.594452 351.886292 482.34845 C 346.95282 486.306885 338.824341 491.678986 335.441406 493.18692 C 332.52832 494.50647 327.829803 495.920166 327.171997 495.68454 C 326.843109 495.543152 326.514221 495.68454 326.420227 495.967285 C 326.279297 496.29718 324.11795 496.532745 320.124207 496.579865 C 315.284729 496.626984 313.264343 496.438538 310.069336 495.63739 C 305.276855 494.41214 300.202423 492.57431 299.356689 491.773254 C 299.027802 491.443359 298.416992 491.160614 298.088074 491.160614 C 297.712219 491.160614 296.302643 490.642242 294.940063 490.029663 C 288.127197 486.872375 278.307251 482.584106 277.790436 482.536987 C 277.461548 482.536987 277.179626 482.301331 277.179626 482.065704 C 277.179626 481.782959 277.038666 481.68869 276.897705 481.877228 C 276.756775 482.018585 275.864014 481.735809 274.924316 481.264648 C 273.937622 480.793396 270.2258 479.096924 266.60791 477.494659 C 262.990051 475.939636 259.513123 474.337372 258.855347 474.007507 C 258.197571 473.630524 257.539764 473.300629 257.351807 473.25351 C 256.600037 473.159302 253.076172 471.651367 248.048706 469.342285 C 246.63916 468.682556 241.98761 466.656158 237.711975 464.77124 C 233.436279 462.93338 229.348572 461.1427 228.549805 460.765686 C 225.448792 459.399109 222.347748 458.032532 221.032166 457.467041 C 220.280396 457.090027 215.910767 455.205048 211.400177 453.225891 C 206.889587 451.199554 202.332001 449.220337 201.29834 448.749054 C 200.264648 448.277893 196.881714 446.816986 193.78067 445.450409 C 190.679657 444.130981 187.296692 442.622986 186.263031 442.151733 C 185.22937 441.680542 182.786133 440.643799 180.859711 439.795532 C 178.933319 438.947296 176.020233 437.674957 174.375732 436.921021 C 172.731262 436.166992 171.227722 435.554413 171.039795 435.554413 C 170.851837 435.554413 169.254333 434.659058 167.468903 433.622314 C 160.937943 429.66391 155.910522 424.056183 152.762497 417.270325 C 152.057709 415.809509 151.493896 414.490021 151.446899 414.348602 C 151.446899 414.207245 151.305954 413.783112 151.118011 413.406189 C 150.648163 412.180969 149.849411 409.353516 149.614471 408.175385 C 149.473526 407.562805 149.19162 405.960541 148.95668 404.688202 C 148.674774 403.368774 148.345871 401.059662 148.204926 399.504608 C 147.923004 396.535828 147.829041 395.499054 147.030289 388.901733 C 146.748383 386.68689 146.466461 384.047943 146.3255 383.01123 C 146.231537 381.974487 145.996613 380.042389 145.80867 378.770081 C 145.620728 377.450623 145.432785 375.659882 145.385803 374.764526 C 145.29184 373.869202 145.197861 373.115204 145.150879 373.115204 C 145.0569 373.115204 144.587051 367.837341 144.493073 365.716705 C 144.493073 364.727142 144.352127 363.925995 144.211166 363.925995 C 144.070221 363.925995 143.92926 363.549072 143.92926 363.07782 C 143.882263 361.23996 142.989548 352.851929 142.801605 352.851929 C 142.801605 352.851929 142.660645 351.768066 142.566681 350.495728 C 142.472717 349.17627 142.284775 347.29129 142.143814 346.254578 C 142.049835 345.217834 141.673965 342.296143 141.392044 339.704346 C 140.687271 333.766724 140.687271 333.672485 139.700577 331.787537 C 137.069397 326.651001 130.162552 325.991272 126.685638 330.562317 C 125.60498 331.928894 124.289398 335.79306 124.759247 336.217163 C 124.806229 336.311401 124.994171 337.772278 125.182114 339.4216 C 125.323074 341.118042 125.511017 343.09726 125.651962 343.898376 C 125.745941 344.652344 125.980865 346.348816 126.121826 347.668274 C 126.544693 352.097931 127.014542 356.009216 127.531372 360.156097 C 127.954254 363.360535 128.23616 365.811035 128.471085 368.402802 C 128.565063 369.675171 128.799988 371.607208 128.940933 372.643951 C 129.034912 373.680725 129.269836 375.141541 129.3638 375.848358 C 129.59874 377.827637 128.940933 376.743774 128.23616 374.057648 C 127.907257 372.73822 127.48439 371.465881 127.343445 371.230286 C 127.202484 370.94751 127.061523 370.429108 126.96756 370.052185 C 126.920563 369.675171 125.792923 365.858154 124.477341 361.569824 C 123.161743 357.281555 121.987106 353.464539 121.893143 353.087524 C 121.799164 352.710541 121.094391 350.260101 120.248657 347.668274 C 119.449905 345.076477 118.745117 342.578918 118.604172 342.107666 C 118.416229 341.25943 116.442841 334.756348 115.268219 330.939301 C 114.093582 327.31073 113.106888 325.849915 111.039536 324.813171 C 108.737259 323.587952 106.575928 323.493713 104.179672 324.530457 C 101.830414 325.567169 100.185928 327.263611 99.528137 329.525574 C 99.011292 331.222046 99.105255 331.928894 100.326874 336.028687 C 101.078644 338.526245 101.689453 340.693939 101.736435 340.835327 C 101.736435 340.976685 101.877396 341.400818 102.018356 341.777802 C 102.488205 343.003021 104.837463 350.872711 104.931442 351.391083 C 104.978424 351.673828 105.260345 352.522034 105.542252 353.323181 C 105.824158 354.077148 106.716888 356.951721 107.562622 359.684875 C 108.361374 362.41806 109.254089 365.151245 109.442032 365.811035 C 109.676956 366.470734 110.287766 368.591278 110.851593 370.523346 C 111.415421 372.455475 111.979233 374.387543 112.120193 374.764496 C 112.308136 375.141541 112.449097 375.612793 112.496078 375.801239 C 112.590042 376.036896 112.637039 376.225372 112.731003 376.272491 C 112.777985 376.36676 112.871964 376.790894 112.965927 377.262146 C 113.200851 378.440216 115.879028 387.25235 116.771744 389.749939 C 117.194611 390.833771 117.570496 392.011902 117.617477 392.341766 C 117.664459 392.624512 118.228287 394.462341 118.792114 396.394379 C 119.402924 398.326508 119.919754 400.211487 120.060715 400.635529 C 120.154694 401.059662 121.188354 404.452637 122.409973 408.222504 C 124.33638 414.254364 126.168808 420.286224 126.544693 421.652893 C 126.591675 421.888458 127.061523 423.396393 127.531372 424.951538 C 128.048218 426.506622 128.377121 427.920319 128.330139 428.108826 C 128.283142 428.344452 128.471085 428.485809 128.752991 428.485809 C 128.98793 428.485809 129.128876 428.674316 128.98793 428.862793 C 128.893951 429.051331 129.175873 430.512146 129.692703 432.020111 C 130.209549 433.575165 130.726379 435.177399 130.820358 435.554413 C 130.914322 435.931396 131.431152 437.674957 131.99498 439.418549 C 132.511826 441.16214 132.981674 442.764404 132.981674 442.95285 C 133.028656 443.188446 133.310577 444.083862 133.686462 444.979156 C 134.062347 445.874573 134.391235 447.052643 134.485199 447.571014 C 134.579178 448.089355 134.814102 448.843353 134.955063 449.220337 C 135.096008 449.597351 135.565872 450.963898 135.988739 452.283356 C 137.962128 458.268097 141.579987 464.912598 145.80867 470.190491 C 149.755432 475.138458 156.944183 481.358887 161.736694 484.044922 C 162.676392 484.610413 164.179932 485.411469 165.025665 485.882751 C 166.294266 486.589569 171.650604 488.94577 172.402344 489.087219 C 172.543335 489.087219 172.966187 489.228546 173.342072 489.369904 C 174.704651 489.888306 181.000671 491.537628 182.97406 491.914612 C 185.182373 492.338745 185.887146 492.527191 187.907532 493.045563 C 190.303772 493.705292 191.38443 493.940979 193.075897 494.223694 C 193.733704 494.365021 195.002289 494.647827 195.89502 494.883392 C 200.170685 496.014404 201.486267 496.344299 203.647583 496.81546 C 206.748627 497.475189 207.171509 497.569489 212.10495 498.747589 C 214.454224 499.265961 216.709534 499.784302 217.179382 499.878601 C 217.649231 499.972839 218.494965 500.208435 219.058777 500.396881 C 219.62262 500.585449 220.51532 500.821014 221.032166 500.868134 C 221.549011 500.962372 223.240479 501.339417 224.790985 501.76355 C 226.341492 502.140472 228.361877 502.611725 229.254578 502.753082 C 230.147339 502.894501 231.274963 503.224365 231.744812 503.459961 C 232.167664 503.695618 232.543579 503.836975 232.543579 503.695618 C 232.543579 503.55426 233.530273 503.742737 234.751892 504.119751 C 235.973511 504.496674 237.054138 504.685211 237.148132 504.590912 C 237.289093 504.496674 237.711975 504.590912 238.181824 504.826569 C 238.604675 505.062164 239.685333 505.392059 240.578064 505.533447 C 241.470764 505.674805 242.551453 505.910461 242.974304 506.051819 C 243.397156 506.193146 244.148926 506.381622 244.618774 506.475952 C 245.088654 506.57016 248.189697 507.277039 251.478638 508.078094 C 254.767639 508.879242 257.868652 509.63324 258.291504 509.727478 C 258.714386 509.774597 259.607117 510.010162 260.264893 510.151611 C 263.037048 510.905548 271.447418 512.837646 272.903961 513.073242 C 273.796692 513.214661 274.642395 513.450256 274.830353 513.544495 C 275.112274 513.733032 275.911011 513.921509 279.059021 514.534119 C 279.716827 514.675476 280.656555 514.911133 281.17337 515.05249 C 281.690216 515.240967 282.441956 515.429443 282.817871 515.476563 C 283.569641 515.617981 290.94632 517.361572 292.449829 517.738525 C 294.282288 518.209778 305.135864 520.801575 306.310516 521.037231 C 306.968323 521.178589 308.847717 521.602722 310.539185 522.026794 C 312.183685 522.450928 314.016113 522.875061 314.532959 522.969299 C 315.049805 523.063538 315.472656 523.157776 315.472656 523.204895 C 315.472656 523.252014 315.942505 523.346313 316.506348 523.487671 C 317.07016 523.581909 319.748322 524.194519 322.379517 524.807129 C 339.388184 528.906921 338.636414 528.718445 342.254272 529.236755 C 344.885468 529.61377 355.316193 529.56665 358.229309 529.189636 C 359.26297 529.048279 361.048431 528.718445 362.223053 528.435669 C 363.397675 528.105774 364.66629 527.823059 365.089142 527.728821 C 366.216797 527.446045 370.257538 526.079468 371.385193 525.608215 C 374.72113 524.194519 377.72821 522.639404 377.963135 522.262451 C 378.151062 521.979675 378.47998 521.885437 378.714905 522.026794 C 378.949829 522.215332 379.137756 522.073914 379.137756 521.74408 C 379.137756 521.414185 379.278717 521.319946 379.419678 521.461304 C 379.654602 521.69696 383.366455 519.434998 384.306152 518.492554 C 384.447113 518.351135 385.38681 517.644287 386.420502 516.89032 C 388.487854 515.382324 395.441681 508.40802 401.925659 501.292267 C 404.274902 498.794708 407.46991 495.307556 409.11441 493.611084 C 410.711914 491.961731 412.027496 490.500916 412.027496 490.453796 C 412.027496 490.359558 413.014191 489.275665 414.282776 488.003326 C 416.819977 485.31723 425.653229 475.845337 429.69397 471.41568 C 431.244507 469.766327 433.781677 467.033203 435.426147 465.3367 C 437.023682 463.687347 438.339233 462.226532 438.339233 462.132324 C 438.339233 462.085205 439.231995 461.048462 440.359619 459.91748 C 441.440308 458.786469 444.870239 455.157959 447.971252 451.812103 C 455.441895 443.801086 455.300964 443.942444 460.422363 438.428955 C 462.865601 435.742889 466.295532 432.06723 468.080933 430.229401 C 469.819458 428.43869 471.229004 426.883575 471.229004 426.836487 C 471.229004 426.742249 472.450623 425.42276 473.954102 423.867645 C 475.410645 422.359711 477.759949 419.814972 479.169495 418.307068 C 483.774048 413.31192 491.150757 405.347961 493.546997 402.803253 C 496.460083 399.693115 503.554932 392.05899 505.528259 389.844238 C 508.958191 385.980042 513.280884 378.628723 515.771118 372.361206 C 516.663818 370.052185 518.261292 363.925995 518.59021 361.475586 C 518.966064 358.22406 518.919067 347.715393 518.496216 345.312073 C 518.308289 344.27536 518.073364 342.767395 517.97937 342.013428 C 517.83844 341.212311 517.556519 340.081329 517.321594 339.4216 C 517.08667 338.761871 516.428833 336.641296 515.865051 334.709229 C 515.301208 332.77713 514.220581 329.14859 513.421814 326.69812 C 511.260498 319.818054 511.07251 319.158325 510.978577 318.545715 C 510.93158 318.21582 510.743652 317.697449 510.555664 317.367615 C 510.320801 317.084839 510.273804 316.802124 510.461731 316.802124 C 510.602661 316.802124 510.414734 316.189514 509.991882 315.388397 C 509.615967 314.634399 509.287109 313.833313 509.287109 313.644806 C 509.287109 313.126465 505.669189 301.109863 504.588562 297.952545 C 504.353638 297.292816 503.601868 294.842346 502.944092 292.533295 C 502.239258 290.177094 501.534546 287.773773 501.299561 287.114044 C 500.829712 285.747437 498.339478 277.642151 498.198608 277.07666 C 498.151611 276.888153 498.057617 276.652527 498.01062 276.511169 C 497.963623 276.369781 497.869629 276.134155 497.822693 275.89856 C 497.587769 275.003174 496.36615 271.044769 495.520386 268.500092 C 495.050537 266.945007 494.580688 265.437042 494.533691 265.201416 C 494.439697 264.918671 494.016846 263.457825 493.546997 261.90274 C 493.030151 260.347656 492.654297 258.981049 492.6073 258.839691 C 492.560303 258.462708 489.647217 249.132172 488.049744 244.231262 C 487.250977 241.780823 486.593201 239.51889 486.546204 239.283264 C 486.452271 239.000519 485.935425 237.209808 485.371582 235.27771 C 484.760742 233.345642 484.243896 231.507813 484.196899 231.272186 C 484.055969 230.612457 480.156189 218.265991 479.827271 217.370636 C 479.68634 216.993652 479.498413 216.428162 479.404419 216.098297 C 479.216492 215.155792 474.470947 199.746277 474.001099 198.521057 C 473.766235 197.861328 473.484253 196.918854 473.39032 196.400482 C 473.24939 195.882111 472.403625 193.101807 471.510864 190.274384 C 470.571167 187.399811 469.819458 184.760864 469.819458 184.336761 C 469.819458 183.912628 469.678467 183.441406 469.49054 183.252899 C 469.255615 183.064423 469.114624 182.734558 469.114624 182.59317 C 469.020691 181.273712 464.557068 170.717957 463.570374 169.539856 C 463.147522 169.021484 461.456055 166.429657 460.563354 164.921692 C 460.281372 164.403351 459.858521 163.884979 459.623657 163.696472 C 459.388672 163.555115 458.542969 162.565491 457.744202 161.528778 C 456.287659 159.643829 452.011963 155.167053 451.683105 155.167053 C 451.589111 155.167053 450.837402 154.601563 450.038574 153.847565 C 449.192871 153.140717 448.300171 152.3396 448.01825 152.104004 C 446.796631 151.067261 444.447388 149.512177 444.024475 149.512177 C 443.789551 149.512177 443.50769 149.323669 443.413696 149.088074 C 442.943848 147.815704 428.9422 142.207977 424.008759 141.312622 C 423.256989 141.218353 422.129333 140.982758 421.565521 140.84137 C 420.954712 140.700012 420.061981 140.464386 419.545135 140.322998 C 417.947632 139.946014 416.538086 139.61615 415.12851 139.333405 C 414.37674 139.239166 413.625 139.00354 413.437042 138.909302 C 413.249115 138.815033 412.403381 138.579437 411.510651 138.438049 C 409.349335 138.013947 408.503601 137.825439 408.503601 137.731201 C 408.503601 137.684082 408.174683 137.589813 407.798798 137.495575 C 407.422913 137.401337 406.577179 137.21283 405.919403 137.071472 C 405.261597 136.930084 404.227936 136.694458 403.570129 136.553101 C 402.912323 136.364594 401.972626 136.176117 401.45578 136.081848 C 400.281158 135.846222 399.388428 135.657745 395.817566 134.715271 C 394.267029 134.338257 392.29364 133.867035 391.40094 133.725647 C 390.508209 133.58429 389.662476 133.348663 389.474548 133.254425 C 389.333588 133.160187 388.675781 132.97168 388.017975 132.830292 C 385.480774 132.311951 383.836304 131.934937 381.393066 131.322327 C 381.158142 131.275208 380.923218 131.180969 380.782257 131.13385 C 380.171448 130.851105 375.707825 130.002869 375.284973 130.097107 C 375.050049 130.144257 374.909088 129.95575 374.909088 129.673004 C 374.909088 129.437378 374.674164 129.34314 374.43924 129.484497 C 374.157318 129.625885 373.264587 129.578766 372.418854 129.296021 C 371.150269 128.871887 366.451721 127.693787 363.679596 127.128296 C 363.256714 127.034058 360.202667 126.28009 356.819733 125.478973 C 353.483765 124.677856 350.288757 123.923889 349.771942 123.82962 C 349.255096 123.735382 347.892517 123.405518 346.717896 123.075653 C 345.543274 122.792908 344.227661 122.557281 343.80481 122.557281 C 343.334961 122.557281 342.959076 122.368805 342.959076 122.133179 C 342.959076 121.850433 342.724121 121.803314 342.489197 121.944672 C 342.207306 122.133179 341.596497 122.08606 341.173645 121.897552 C 340.280884 121.520569 339.529144 121.332062 337.79068 121.002197 C 337.132874 120.907959 333.468018 120.059753 329.568237 119.117249 C 321.345825 117.090942 321.157898 117.043823 320.077209 116.808167 C 319.607361 116.713928 317.211121 116.148438 314.767883 115.535828 C 312.324646 114.923218 310.116333 114.499084 309.928406 114.546265 C 309.740448 114.593384 309.176636 114.451965 308.753754 114.216309 C 308.330872 113.980713 307.344177 113.697998 306.545441 113.556641 C 304.619049 113.226746 298.839844 111.907288 294.564209 110.776306 C 292.637787 110.257935 290.617432 109.786743 290.100586 109.692444 C 289.58374 109.645325 288.221191 109.31543 287.046539 109.032715 C 285.871887 108.75 284.415344 108.372986 283.757568 108.231628 C 283.099792 108.09021 280.891479 107.571899 278.824097 107.053528 C 276.756775 106.535156 274.548462 106.016785 273.890656 105.922546 C 273.232849 105.828308 271.541382 105.451294 270.131836 105.027222 C 267.547638 104.367432 265.997131 104.037598 261.20462 103.330688 C 258.103577 102.859497 250.069092 102.906616 247.109009 103.377808 Z M 338.260529 137.307068 C 339.153259 137.401337 339.998993 137.636963 340.139954 137.77832 C 340.280884 137.966827 341.126617 138.155334 342.019348 138.249573 C 342.912079 138.343811 343.898773 138.485168 344.133698 138.626556 C 344.415588 138.767944 344.83847 138.909302 345.073395 138.956421 C 345.496277 139.050659 347.798553 139.521912 348.832214 139.757507 C 349.114136 139.851776 349.536987 139.993164 349.771942 140.134521 C 350.053833 140.322998 350.617676 140.370148 351.087524 140.322998 C 351.510376 140.22876 351.886261 140.370148 351.886261 140.605774 C 351.886261 140.888489 352.027222 140.982758 352.262146 140.84137 C 352.450104 140.747131 354.282532 141.029877 356.349884 141.548218 C 358.417236 142.01947 360.531555 142.537842 361.048401 142.679199 C 361.565247 142.773468 362.504944 143.009094 363.16275 143.150452 C 363.820526 143.291809 365.183105 143.621704 366.216797 143.8573 C 367.250458 144.092926 369.364807 144.564148 370.962311 144.988281 C 374.204285 145.789398 376.22467 146.26062 377.258331 146.402008 C 377.681213 146.449127 378.245026 146.684753 378.573914 146.87323 C 378.902832 147.061737 379.325684 147.155975 379.466644 147.014618 C 379.607605 146.87323 380.218414 146.920349 380.829224 147.155975 C 381.956879 147.580109 382.943573 147.862854 385.621735 148.334076 C 386.326508 148.475464 387.407166 148.71106 388.064972 148.899567 C 388.722748 149.040955 389.474518 149.229431 389.709442 149.323669 C 390.508209 149.512177 392.951447 150.030548 393.938141 150.219055 C 394.454956 150.360413 395.817535 150.643158 396.992188 150.925903 C 398.166809 151.255768 399.529388 151.585632 400.046204 151.72699 C 400.563049 151.821259 401.408783 152.009766 401.925629 152.104004 C 402.442474 152.198242 404.227905 152.622375 405.919373 153.046478 C 407.61084 153.470581 409.490265 153.894714 410.101074 154.036072 C 410.711884 154.177429 412.497314 154.601563 414.094849 154.978577 C 419.592102 156.298035 421.988373 156.816406 422.505188 156.675018 C 422.693146 156.627899 422.834106 156.769257 422.834106 156.957764 C 422.834106 157.14624 423.209991 157.334747 423.67984 157.381897 C 426.07608 157.570374 435.050293 161.057556 435.98999 162.188538 C 436.13092 162.329895 437.399536 163.272369 438.856079 164.261963 C 444.917175 168.314636 450.978333 176.608429 453.186646 183.81839 C 453.656494 185.279236 454.267273 186.645844 454.502197 186.83432 C 454.784119 187.022827 454.878113 187.211334 454.690125 187.211334 C 454.502197 187.211334 454.831116 188.577911 455.441895 190.274384 C 456.052734 191.970825 456.428589 193.337433 456.334656 193.337433 C 456.193665 193.337433 455.019043 192.253571 453.70343 190.934113 C 452.340881 189.567505 450.508423 187.965302 449.615723 187.258453 C 448.723022 186.598724 447.877258 185.891846 447.736328 185.750488 C 447.595337 185.6091 446.843628 185.137878 446.044861 184.713745 C 445.246094 184.289642 444.353394 183.629913 444.024475 183.252899 C 443.695557 182.828796 443.225708 182.640289 442.990784 182.781677 C 442.755859 182.923035 442.567932 182.781677 442.567932 182.546051 C 442.567932 182.263306 442.427002 182.074829 442.239014 182.121948 C 442.004089 182.169067 441.017395 181.744934 439.936768 181.226593 C 438.903076 180.661102 436.13092 179.435883 433.828674 178.446259 C 431.526367 177.503784 428.80127 176.372833 427.767548 175.901581 C 422.1763 173.451141 420.061951 172.602905 419.592102 172.602905 C 419.310211 172.602905 419.075256 172.414398 419.075256 172.131653 C 419.075256 171.896057 418.746368 171.801819 418.370483 171.943176 C 417.994629 172.131653 417.66571 171.990295 417.66571 171.70755 C 417.66571 171.424805 417.383789 171.189209 417.054901 171.189209 C 416.444092 171.189209 411.416656 169.115723 403.476135 165.581421 C 402.254517 165.015961 401.126892 164.591858 401.032898 164.591858 C 400.938934 164.591858 400.046204 164.214844 399.05954 163.79071 C 398.025848 163.366608 397.133118 162.989624 396.992188 162.942505 C 396.240417 162.706879 391.212982 160.539185 389.286591 159.59671 C 388.534821 159.219727 387.783051 158.936951 387.595123 158.936951 C 387.407166 158.936951 386.044586 158.41861 384.588043 157.75885 C 383.1315 157.099121 381.862915 156.58075 381.721954 156.58075 C 381.580994 156.58075 380.782227 156.250916 379.936493 155.779663 C 379.137756 155.35553 378.245026 154.931427 377.963135 154.884308 C 377.58725 154.79007 374.72113 153.611969 366.216797 149.983429 C 365.699951 149.794922 364.290405 149.182312 363.068787 148.616821 C 361.847168 148.051331 360.719513 147.627228 360.578552 147.627228 C 360.484589 147.627228 359.26297 147.108856 357.900391 146.496246 C 356.537811 145.883636 354.047607 144.799805 352.35611 144.092926 C 350.664642 143.433197 348.409363 142.443604 347.328705 141.925232 C 346.20105 141.453979 344.979431 141.029877 344.603546 141.029877 C 344.227661 141.029877 343.898773 140.79425 343.898773 140.558655 C 343.898773 140.275879 343.522888 140.087402 343.05304 140.087402 C 342.58316 140.087402 341.972351 139.851776 341.643463 139.521912 C 341.314575 139.192047 341.079651 139.097778 341.079651 139.286285 C 341.079651 139.474792 340.609802 139.380554 340.045959 139.050659 C 339.43515 138.720795 338.824341 138.532288 338.636414 138.579437 C 338.401489 138.626556 338.260529 138.438049 338.260529 138.202454 C 338.260529 137.919678 338.119568 137.77832 337.931641 137.825439 C 337.226837 138.013947 335.441406 137.21283 335.441406 136.694458 C 335.441406 136.364624 335.629333 136.364624 336.052216 136.694458 C 336.334137 136.930084 337.367798 137.259949 338.260529 137.307068 Z M 477.806885 264.023315 C 477.57196 263.363586 476.914185 261.243011 476.397339 259.310913 C 475.833496 257.378845 475.128723 255.541016 474.893799 255.30542 C 474.517944 254.975525 474.470947 255.022644 474.658875 255.352539 C 474.987793 255.91803 475.410645 258.93396 475.692566 262.845215 C 475.78656 264.117554 475.92749 265.201416 475.974487 265.201416 C 475.974487 265.201416 476.06842 265.719788 476.162415 266.379517 C 476.397339 268.59436 476.867188 272.741241 477.102112 274.390594 C 477.243103 275.28595 477.43103 276.888153 477.524963 277.924866 C 477.665955 278.961609 477.900879 281.176453 478.041809 282.872894 C 478.229797 284.569366 478.464722 286.548553 478.605652 287.34967 C 478.699646 288.103638 478.840576 289.564484 478.887573 290.506958 C 478.93457 291.496582 479.0755 292.297668 479.216492 292.297668 C 479.357422 292.297668 479.498352 293.193024 479.545349 294.324005 C 479.639343 297.198578 480.109192 301.722473 480.485046 303.371796 C 480.673035 304.125793 480.766968 304.92688 480.719971 305.115387 C 480.673035 305.303894 480.860962 307.094604 481.095886 309.120911 C 481.377808 311.147247 481.706665 313.97467 481.847656 315.388397 C 481.988586 316.802124 482.176514 318.498596 482.270508 319.158325 C 482.787354 322.551239 483.022278 324.389069 483.210205 326.933777 C 483.304199 328.488861 483.445129 329.7612 483.445129 329.7612 C 483.586121 329.7612 483.868042 331.787537 484.149902 334.237976 C 484.290894 335.651703 484.478821 337.583771 484.572815 338.479126 C 484.713745 339.374481 484.901672 341.30658 485.042664 342.720276 C 485.183594 344.134003 485.418518 346.11322 485.559509 347.055695 C 485.747437 348.705017 485.982361 350.589966 486.499207 355.20813 C 486.640137 356.244843 486.828064 357.705688 486.922058 358.506805 C 487.438904 362.182495 487.861755 367.837341 487.861755 371.701508 C 487.861755 376.97937 487.485901 380.655029 486.499207 385.131836 C 486.311218 385.791534 486.123291 386.828308 485.982361 387.488007 C 485.962097 387.601746 485.940491 387.708771 485.920776 387.806122 C 485.862976 388.092163 485.822327 388.293549 485.883911 388.332245 C 486.031555 388.425049 486.766663 387.582947 489.263367 384.72287 C 489.486572 384.467163 489.723877 384.195282 489.976074 383.906586 C 493.312073 379.99527 494.956543 377.968964 495.614319 376.696625 C 495.990234 376.036896 496.413086 375.377197 496.64801 375.235779 C 497.023926 374.953064 500.40686 368.355682 500.594788 367.460358 C 500.641785 367.224731 501.064636 365.763916 501.487488 364.25589 C 501.957336 362.747955 502.427185 360.768707 502.568176 359.779175 C 502.944031 357.658569 502.897095 348.092407 502.568176 346.490204 C 502.427185 345.830444 502.192261 344.793732 502.051331 344.134003 C 501.9104 343.474274 501.675476 342.531799 501.581482 342.013428 C 501.440552 341.495056 500.077942 336.924042 498.527405 331.881775 C 496.929932 326.839508 495.567383 322.221375 495.473389 321.655884 C 495.332458 321.090393 495.050537 320.242188 494.815613 319.770935 C 494.533691 319.299683 494.345764 318.781311 494.298767 318.545715 C 494.25177 318.215851 494.204773 318.027344 494.016846 317.367615 C 493.969849 317.179108 493.781921 316.236633 493.593994 315.24704 C 493.35907 314.304565 493.077148 313.503448 492.889221 313.503448 C 492.701233 313.503448 492.560303 313.126465 492.513306 312.655212 C 492.466309 312.18396 491.99646 310.34613 491.432617 308.508301 C 489.506226 302.335083 487.814758 296.774445 486.734131 293.240173 C 486.170288 291.308075 485.512512 289.1875 485.324585 288.527771 C 485.0896 287.868042 484.243896 285.134827 483.445129 282.401672 C 482.599426 279.668457 481.565735 276.275543 481.095886 274.861816 C 480.626038 273.44812 479.827271 270.667786 479.263428 268.735718 C 478.652649 266.80365 478.041809 264.683044 477.806885 264.023315 Z M 442.192078 435.177399 C 441.910156 435.507233 438.809143 438.75885 435.332214 442.38739 C 431.808289 446.01593 428.9422 448.984711 428.9422 449.03183 C 428.9422 449.03183 427.015808 451.058167 424.666534 453.508575 C 414.235809 464.347076 408.785522 470.001984 399.576385 479.615265 C 383.507416 496.438538 374.157318 505.769043 373.311584 505.769043 C 372.888733 505.769043 372.559814 505.957581 372.559814 506.193146 C 372.559814 507.18277 361.236359 512.224976 360.296661 511.659546 C 360.061737 511.471069 359.873779 511.565308 359.873779 511.800873 C 359.873779 512.03656 359.591888 512.224976 359.309967 512.224976 C 358.981079 512.272095 357.336578 512.460571 355.645111 512.743408 C 350.805634 513.450256 340.515839 512.884766 339.858032 511.847992 C 339.717072 511.612427 339.435181 511.518188 339.200256 511.659546 C 338.965332 511.800873 337.226868 511.565308 335.347443 511.141174 L 331.964508 510.340057 L 336.475098 508.832092 C 341.784454 507.041382 346.905853 504.685181 350.758636 502.234711 C 354.141571 500.114197 367.485413 490.21814 367.955261 489.558411 C 368.190186 489.228546 368.331146 489.228546 368.331146 489.511292 C 368.331146 489.794037 368.472107 489.794037 368.707031 489.464142 C 368.894958 489.181427 371.479156 487.202179 374.43924 484.987427 C 377.399323 482.819702 380.171448 480.793396 380.547333 480.463501 C 380.923218 480.180756 383.037537 478.578552 385.24585 476.976288 C 387.454163 475.374146 389.333588 473.866119 389.380554 473.630524 C 389.474548 473.441986 389.850433 473.25351 390.226318 473.25351 C 390.602173 473.25351 390.884094 473.017944 390.884094 472.782288 C 390.884094 472.499573 391.119019 472.311096 391.447937 472.311096 C 391.729828 472.311096 392.293671 471.981171 392.716522 471.604156 C 393.562256 470.755981 397.743958 467.645813 401.173889 465.242493 C 402.489471 464.347076 403.523132 463.451782 403.570129 463.216095 C 403.570129 463.027649 403.805054 462.886292 404.133972 462.886292 C 404.415863 462.886292 404.979675 462.556396 405.402557 462.132324 C 405.825439 461.75531 408.080719 460.058807 410.382996 458.362335 C 412.732269 456.665894 415.12854 454.875214 415.786316 454.403961 C 416.444122 453.932739 418.464478 452.424713 420.249939 451.105286 C 422.082336 449.785828 423.632874 448.466339 423.67984 448.230682 C 423.773804 447.995117 424.055725 447.806641 424.337646 447.806641 C 424.572571 447.806641 425.982117 446.864105 427.43866 445.780243 C 428.9422 444.649261 432.231201 442.151733 434.815369 440.219666 C 442.802856 434.282043 443.131775 434.046448 442.192078 435.177399 Z M 171.133743 453.508667 C 164.50882 450.916779 159.105499 447.665253 153.138367 442.670074 C 151.728806 441.492035 149.990356 439.889801 149.285568 439.088745 C 148.533813 438.334717 147.969986 437.816345 147.969986 438.004883 C 147.969986 439.32431 153.044403 453.131622 153.702194 453.508636 C 153.937119 453.650024 154.172043 453.979858 154.172043 454.215515 C 154.21904 455.016571 155.158737 456.760162 155.581604 456.760162 C 155.769547 456.760162 155.957489 457.090027 155.957489 457.467041 C 155.957489 457.844055 156.145432 458.173859 156.333374 458.173859 C 156.568298 458.173859 157.038147 458.69223 157.36705 459.35199 C 158.776611 461.990967 164.132935 466.750458 169.113373 469.813538 C 170.804855 470.85022 172.30838 471.698486 172.543304 471.745605 C 172.731262 471.792694 173.670959 472.169708 174.657654 472.593811 C 175.597351 472.970825 177.053894 473.442078 177.805664 473.583435 C 178.604401 473.724762 179.544128 474.007538 179.96698 474.243134 C 180.671753 474.620148 181.188599 474.714417 184.524567 475.421265 C 185.22934 475.562592 187.061768 475.986725 188.612274 476.410858 C 190.162811 476.787842 191.854279 477.211975 192.324127 477.306183 C 192.793976 477.400421 193.874634 477.683197 194.673401 477.918793 C 195.472137 478.201569 196.64679 478.484314 197.304565 478.625671 C 197.962372 478.71991 199.418915 479.049805 200.593536 479.332489 C 201.768188 479.662384 203.130737 479.992279 203.647583 480.086517 C 204.164429 480.227875 205.855896 480.652039 207.406403 481.076111 C 208.95694 481.453094 210.648407 481.877228 211.165253 481.971466 C 211.682068 482.065704 216.427612 483.196716 221.736938 484.563293 C 227.046265 485.882721 231.697815 487.060852 232.0737 487.155121 C 232.449585 487.24939 233.859131 487.579193 235.127747 487.861969 C 236.443359 488.191833 237.899902 488.521698 238.416718 488.568848 C 238.933563 488.663086 239.356445 488.757324 239.356445 488.804413 C 239.356445 488.898651 240.718994 489.228546 241.940613 489.464142 C 242.316498 489.558411 242.974304 489.746918 243.350189 489.888275 C 244.054962 490.123871 245.88739 490.595154 248.048706 491.019257 C 250.022095 491.396271 250.632904 491.537628 250.632904 491.631866 C 250.632904 491.726135 252.277405 492.103149 253.54599 492.338745 C 254.062836 492.385864 255.237488 492.715759 256.130188 492.951324 C 259.513123 494.035187 267.500641 495.873047 267.688568 495.637451 C 267.829529 495.496033 267.594604 495.401764 267.171753 495.401764 C 266.701904 495.401764 266.372986 495.213287 266.372986 494.977722 C 266.372986 494.742035 265.85614 494.412231 265.198364 494.270813 C 263.929749 493.940979 259.56012 492.056 257.351807 490.87793 C 256.600037 490.453796 256.036224 490.26532 256.036224 490.406677 C 256.036224 490.500916 254.767609 489.982544 253.217102 489.228546 C 251.666595 488.474609 250.304016 487.861969 250.163055 487.861969 C 250.069092 487.861969 248.847473 487.343597 247.484894 486.731018 C 244.524811 485.41156 238.933563 482.961121 236.960175 482.159973 C 236.208405 481.830109 235.456665 481.594452 235.268707 481.641571 C 235.033783 481.68869 234.892822 481.500214 234.892822 481.17041 C 234.892822 480.887634 234.798859 480.746277 234.610901 480.887634 C 234.469971 481.028961 233.107391 480.55777 231.556885 479.803772 C 230.053345 479.049774 228.643768 478.437195 228.502808 478.437195 C 228.361877 478.437195 227.046265 477.871674 225.589722 477.211975 C 222.723633 475.892517 220.703247 475.091339 220.327393 475.091339 C 220.186432 475.091339 219.481628 474.667267 218.682892 474.196045 C 217.931122 473.724762 217.085388 473.300629 216.803467 473.25351 C 216.098694 473.112183 214.877075 472.593811 209.990601 470.426117 C 207.547363 469.342285 204.916199 468.211273 204.117432 467.83429 C 201.768188 466.844696 199.512878 465.855072 197.53949 464.959747 C 196.505829 464.535614 195.566101 464.111481 195.425171 464.064362 C 194.485443 463.734467 192.042206 462.650665 185.652222 459.776123 C 184.289642 459.163483 183.068024 458.645111 182.97406 458.645111 C 182.739136 458.645111 179.96698 457.419922 175.926239 455.534973 C 174.657654 454.969452 172.496338 454.026947 171.133743 453.508636 Z"/>
        <path id="path2" fill="#ffffff" fill-rule="evenodd" stroke="none" d="M 557.165161 183.158691 C 557.071167 183.25293 555.614624 183.441406 553.923157 183.629913 C 547.110291 184.242523 545.559753 184.43103 542.176819 184.855133 C 538.55896 185.373505 535.833801 186.692993 535.316956 188.248047 C 535.176025 188.719299 534.847107 189.096313 534.612183 189.096313 C 534.377258 189.096313 534.236328 189.237671 534.283264 189.426147 C 534.330261 189.661774 534.142334 190.321533 533.860413 190.981262 C 531.746094 196.070618 530.665405 198.568207 529.960632 200.17041 C 526.295776 208.369995 526.013855 210.726196 528.316162 214.11908 C 529.114929 215.250061 529.819702 216.286804 530.007629 216.428162 C 530.14856 216.569519 530.853333 217.512024 531.605103 218.548767 C 532.40387 219.585449 533.108643 220.527954 533.249634 220.669312 C 533.390564 220.810699 534.04834 221.658936 534.65918 222.55426 C 535.316956 223.449646 536.068726 224.533478 536.397644 224.910461 C 536.726501 225.287476 537.619263 226.465576 538.417969 227.45517 C 540.673279 230.376831 542.834595 231.602051 545.653748 231.6492 C 547.674072 231.69632 554.158081 231.225098 554.158081 231.036591 C 554.158081 230.989441 555.003784 230.895203 556.037476 230.800964 C 560.689026 230.376831 562.615417 230.141235 562.615417 230.046997 C 562.615417 229.999878 563.273254 229.905609 564.024963 229.85849 C 569.757202 229.528625 571.166748 228.209167 574.502747 220.339447 C 575.865295 217.182129 576.945984 214.401855 576.945984 214.11908 C 576.945984 213.836365 577.133911 213.600739 577.321838 213.600739 C 577.556763 213.600739 577.74469 213.317993 577.74469 212.988129 C 577.74469 212.705383 578.214539 211.338806 578.825378 210.066437 C 579.483154 208.605591 579.906006 206.720642 579.953003 205.071289 C 580 202.479492 579.953003 202.385254 575.818298 196.824615 C 573.469055 193.761566 571.401672 190.981262 571.213745 190.745636 C 570.978821 190.462891 569.945129 189.143433 568.911438 187.776825 C 566.468201 184.666626 563.978027 183.347168 560.219177 183.158691 C 558.621704 183.064423 557.259094 183.064423 557.165161 183.158691 Z"/>
        <path id="path3" fill="#ffffff" fill-rule="evenodd" stroke="none" d="M 137.116379 204.41156 C 136.928436 204.552917 136.223663 204.788574 135.518875 204.929932 C 132.417847 205.495422 129.222855 207.521729 126.262772 210.867554 C 124.618286 212.705383 122.738876 214.825958 122.034096 215.532837 C 121.282326 216.286804 120.718506 216.993652 120.718506 217.13501 C 120.718506 217.276398 120.154678 217.983276 119.449898 218.690125 C 118.698135 219.396973 116.865707 221.470428 115.362175 223.261139 C 113.811661 225.098969 112.120193 226.983948 111.603355 227.549408 C 108.455338 230.753845 106.481956 233.816895 105.542244 236.974182 C 104.461586 240.696991 104.884453 244.608276 107.32769 252.477966 C 108.502319 256.342133 109.582985 259.876434 109.676956 260.253418 C 109.770927 260.630402 109.864899 260.960266 109.91188 260.960266 C 109.95887 260.960266 110.052841 261.33728 110.146805 261.761383 C 110.240776 262.185516 110.663651 263.693481 111.133499 265.060059 C 111.603355 266.426666 111.932251 267.793243 111.885262 268.123108 C 111.83828 268.405853 111.979233 268.782837 112.261147 268.971344 C 112.496071 269.112732 112.731003 269.678192 112.731003 270.196564 C 112.731003 272.2229 115.597107 278.490387 117.335564 280.281097 C 119.07402 282.071808 122.081078 283.674011 124.336372 284.098114 C 124.994171 284.239502 126.967552 284.663605 128.659027 285.040619 C 130.350494 285.417603 133.26358 286.030212 135.049026 286.407196 C 136.881454 286.78418 138.760864 287.208313 139.27771 287.302551 C 139.79454 287.443939 142.331757 287.96228 144.915939 288.527771 C 147.500137 289.093262 150.037338 289.658752 150.554184 289.80011 C 153.232346 290.506989 157.695953 290.318481 160.092209 289.376007 C 162.582428 288.433533 166.811096 284.757874 170.241028 280.516724 C 170.945816 279.621368 172.590302 277.736389 173.858902 276.369812 C 175.127502 275.050323 176.020233 273.919373 175.879272 273.919373 C 175.738312 273.919373 176.114197 273.44812 176.725006 272.83551 C 177.335815 272.2229 179.074265 270.290802 180.624786 268.500122 C 182.175308 266.709412 183.772797 264.918701 184.195679 264.494568 C 185.323318 263.316467 187.061783 259.876434 187.766556 257.425995 C 188.518326 254.975525 188.142441 250.404541 186.920822 246.493225 C 186.216034 244.184143 185.652222 242.252075 185.652222 242.204956 C 185.605225 242.157837 185.511261 241.780823 185.417282 241.40387 C 185.276337 241.026855 184.947433 239.754517 184.618546 238.576416 C 184.336624 237.398315 183.866776 236.078857 183.631851 235.654724 C 183.396927 235.230621 183.115005 234.193909 182.97406 233.345642 C 182.833099 232.544556 182.504196 231.507813 182.316254 231.08371 C 182.081329 230.659607 181.893387 230.188354 181.893387 229.952728 C 181.893387 229.764221 181.423538 228.162048 180.906693 226.371338 C 180.389862 224.627747 179.873016 222.742767 179.779053 222.271545 C 179.544128 220.76355 176.678024 215.485687 175.456406 214.260468 C 174.422729 213.223755 169.113388 210.49054 169.113388 210.961792 C 169.113388 211.05603 168.314636 210.961792 167.374924 210.726196 C 165.824417 210.349182 158.682648 208.794098 155.722565 208.134338 C 154.782867 207.945862 153.420288 207.663116 151.399918 207.239014 C 150.789108 207.097626 149.849396 206.862 149.285583 206.720642 C 148.674774 206.579285 147.594101 206.390778 146.795364 206.24939 C 146.043594 206.108032 144.258148 205.731018 142.942566 205.354065 C 141.579987 205.02417 139.841537 204.788574 139.042786 204.835693 C 138.291016 204.882813 137.586227 204.741455 137.492264 204.505798 C 137.445282 204.317322 137.257339 204.223083 137.116379 204.41156 Z"/>
        <path id="path4" fill="#ffffff" fill-rule="evenodd" stroke="none" d="M 300.014496 400.070099 C 299.873535 400.258606 298.792877 400.399994 294.329254 400.871216 C 293.060669 401.012604 291.369171 401.248199 290.570435 401.389587 C 289.818665 401.483826 288.315125 401.719452 287.281464 401.907959 C 284.03949 402.379181 282.911835 403.415924 280.938446 407.515686 C 278.871094 411.851105 277.27359 415.385376 275.77005 419.061066 C 275.159241 420.474762 274.501465 421.84137 274.360504 422.124115 C 273.890656 422.736725 274.078583 426.695129 274.595428 427.543365 C 274.783356 427.920349 276.568817 430.700653 278.542206 433.669464 C 280.468597 436.638275 282.019104 439.230103 281.972107 439.418579 C 281.92514 439.654205 282.113068 439.795593 282.347992 439.795593 C 282.629913 439.795593 282.817871 440.031189 282.817871 440.266815 C 282.817871 441.256409 286.247772 444.460846 288.033234 445.167725 C 289.959625 445.968811 292.637787 445.921692 298.792877 444.979218 C 303.068542 444.366608 305.041901 444.083862 307.438171 443.753998 C 308.424866 443.659729 309.834412 443.188507 310.492218 442.811523 C 311.619843 442.151764 313.358307 439.842712 313.640228 438.617493 C 313.687225 438.334747 314.016113 437.486511 314.345001 436.732513 C 314.673889 435.931427 314.955811 435.177429 315.002808 434.941803 C 315.096771 434.753326 315.190735 434.5177 315.237732 434.376343 C 315.284698 434.234955 315.378693 433.999329 315.472656 433.763733 C 315.519653 433.575226 315.707581 433.103973 315.848541 432.72699 C 317.540009 428.627197 319.936249 421.511505 319.936249 420.521881 C 319.936249 418.16571 319.090515 416.422119 315.002808 410.107513 C 310.351257 402.944672 309.458527 401.860809 307.485138 400.776978 C 306.263519 400.117249 300.531311 399.551758 300.014496 400.070099 Z"/>
        <path id="path5" fill="#ffffff" fill-rule="evenodd" stroke="none" d="M 200.452591 530.132141 C 200.358627 530.17926 199.371933 530.320618 198.244278 530.367798 C 197.069656 530.462036 195.942001 530.650513 195.660095 530.838989 C 195.425156 530.980408 194.767365 530.933228 194.250534 530.744751 C 193.686707 530.556274 192.746994 530.697632 191.90126 531.074646 C 190.773621 531.640137 189.88089 533.006714 187.531631 537.766235 C 183.490891 545.871521 183.490891 545.824402 190.491699 554.44812 C 194.250534 559.066223 194.767365 559.30188 200.217667 558.830627 C 208.909943 558.07666 210.648407 557.841003 211.400177 557.369751 C 211.682083 557.181274 212.809738 555.202087 213.890396 552.987244 C 214.971054 550.725281 216.00473 548.793213 216.145691 548.651855 C 216.380615 548.463379 217.085388 546.908264 217.226349 546.295654 C 217.273331 546.154297 217.555252 545.588806 217.88414 545.023315 C 218.682892 543.562439 218.400986 541.866028 217.179367 540.782166 C 216.662521 540.310913 214.501205 537.766235 212.433853 535.174438 C 210.319504 532.535461 208.34613 530.273499 207.970245 530.132141 C 207.406418 529.896545 200.640533 529.896545 200.452591 530.132141 Z"/>
    </g>
</svg>
